<svg xmlns="http://www.w3.org/2000/svg" xmlns:xlink="http://www.w3.org/1999/xlink" version="1.1" class="marks" width="628" height="376" viewBox="0 0 628 376"><rect width="628" height="376" fill="#fff"/><g fill="none" stroke-miterlimit="10" transform="translate(65,33)"><g class="mark-group role-frame root" role="graphics-object" aria-roledescription="group mark container"><g transform="translate(0,0)"><path class="background" aria-hidden="true" d="M0.5,0.5h500v300h-500Z" stroke="#ddd"/><g><g class="mark-group role-axis" aria-hidden="true"><g transform="translate(0.5,300.5)"><path class="background" aria-hidden="true" d="M0,0h0v0h0Z" pointer-events="none"/><g><g class="mark-rule role-axis-grid" pointer-events="none"><line transform="translate(22,-300)" x2="0" y2="300" stroke="#ddd" stroke-width="1" opacity="1"/><line transform="translate(65,-300)" x2="0" y2="300" stroke="#ddd" stroke-width="1" opacity="1"/><line transform="translate(109,-300)" x2="0" y2="300" stroke="#ddd" stroke-width="1" opacity="1"/><line transform="translate(152,-300)" x2="0" y2="300" stroke="#ddd" stroke-width="1" opacity="1"/><line transform="translate(196,-300)" x2="0" y2="300" stroke="#ddd" stroke-width="1" opacity="1"/><line transform="translate(239,-300)" x2="0" y2="300" stroke="#ddd" stroke-width="1" opacity="1"/><line transform="translate(283,-300)" x2="0" y2="300" stroke="#ddd" stroke-width="1" opacity="1"/><line transform="translate(326,-300)" x2="0" y2="300" stroke="#ddd" stroke-width="1" opacity="1"/><line transform="translate(370,-300)" x2="0" y2="300" stroke="#ddd" stroke-width="1" opacity="1"/><line transform="translate(414,-300)" x2="0" y2="300" stroke="#ddd" stroke-width="1" opacity="1"/><line transform="translate(457,-300)" x2="0" y2="300" stroke="#ddd" stroke-width="1" opacity="1"/></g></g><path class="foreground" aria-hidden="true" d="" pointer-events="none" display="none"/></g></g><g class="mark-group role-axis" aria-hidden="true"><g transform="translate(0.5,0.5)"><path class="background" aria-hidden="true" d="M0,0h0v0h0Z" pointer-events="none"/><g><g class="mark-rule role-axis-grid" pointer-events="none"><line transform="translate(0,300)" x2="500" y2="0" stroke="#e1e8f0" stroke-width="1" opacity="1"/><line transform="translate(0,270)" x2="500" y2="0" stroke="#e1e8f0" stroke-width="1" opacity="1"/><line transform="translate(0,240)" x2="500" y2="0" stroke="#e1e8f0" stroke-width="1" opacity="1"/><line transform="translate(0,210)" x2="500" y2="0" stroke="#e1e8f0" stroke-width="1" opacity="1"/><line transform="translate(0,180)" x2="500" y2="0" stroke="#e1e8f0" stroke-width="1" opacity="1"/><line transform="translate(0,150)" x2="500" y2="0" stroke="#e1e8f0" stroke-width="1" opacity="1"/><line transform="translate(0,120)" x2="500" y2="0" stroke="#e1e8f0" stroke-width="1" opacity="1"/><line transform="translate(0,90)" x2="500" y2="0" stroke="#e1e8f0" stroke-width="1" opacity="1"/><line transform="translate(0,60)" x2="500" y2="0" stroke="#e1e8f0" stroke-width="1" opacity="1"/><line transform="translate(0,30)" x2="500" y2="0" stroke="#e1e8f0" stroke-width="1" opacity="1"/><line transform="translate(0,0)" x2="500" y2="0" stroke="#e1e8f0" stroke-width="1" opacity="1"/></g></g><path class="foreground" aria-hidden="true" d="" pointer-events="none" display="none"/></g></g><g class="mark-group role-axis" role="graphics-symbol" aria-roledescription="axis" aria-label="X-axis titled 'date' for a time scale with values from Wednesday, 30 August 2023, 11:23:42 AM to Saturday, 18 November 2023, 10:04:01 PM"><g transform="translate(0.5,300.5)"><path class="background" aria-hidden="true" d="M0,0h0v0h0Z" pointer-events="none"/><g><g class="mark-rule role-axis-tick" pointer-events="none"><line transform="translate(22,0)" x2="0" y2="5" stroke="#888" stroke-width="1" opacity="1"/><line transform="translate(65,0)" x2="0" y2="5" stroke="#888" stroke-width="1" opacity="1"/><line transform="translate(109,0)" x2="0" y2="5" stroke="#888" stroke-width="1" opacity="1"/><line transform="translate(152,0)" x2="0" y2="5" stroke="#888" stroke-width="1" opacity="1"/><line transform="translate(196,0)" x2="0" y2="5" stroke="#888" stroke-width="1" opacity="1"/><line transform="translate(239,0)" x2="0" y2="5" stroke="#888" stroke-width="1" opacity="1"/><line transform="translate(283,0)" x2="0" y2="5" stroke="#888" stroke-width="1" opacity="1"/><line transform="translate(326,0)" x2="0" y2="5" stroke="#888" stroke-width="1" opacity="1"/><line transform="translate(370,0)" x2="0" y2="5" stroke="#888" stroke-width="1" opacity="1"/><line transform="translate(414,0)" x2="0" y2="5" stroke="#888" stroke-width="1" opacity="1"/><line transform="translate(457,0)" x2="0" y2="5" stroke="#888" stroke-width="1" opacity="1"/></g><g class="mark-text role-axis-label" pointer-events="none"><text text-anchor="middle" transform="translate(21.899422477850578,15)" font-family="sans-serif" font-size="10px" fill="#000" opacity="1">Sep 03</text><text text-anchor="middle" transform="translate(65.3850672539146,15)" font-family="sans-serif" font-size="10px" fill="#000" opacity="1">Sep 10</text><text text-anchor="middle" transform="translate(108.87071202997863,15)" font-family="sans-serif" font-size="10px" fill="#000" opacity="1">Sep 17</text><text text-anchor="middle" transform="translate(152.35635680604267,15)" font-family="sans-serif" font-size="10px" fill="#000" opacity="1">Sep 24</text><text text-anchor="middle" transform="translate(195.8420015821067,15)" font-family="sans-serif" font-size="10px" fill="#000" opacity="1">October</text><text text-anchor="middle" transform="translate(239.3276463581707,15)" font-family="sans-serif" font-size="10px" fill="#000" opacity="1">Oct 08</text><text text-anchor="middle" transform="translate(282.81329113423476,15)" font-family="sans-serif" font-size="10px" fill="#000" opacity="1">Oct 15</text><text text-anchor="middle" transform="translate(326.2989359102988,15)" font-family="sans-serif" font-size="10px" fill="#000" opacity="1">Oct 22</text><text text-anchor="middle" transform="translate(369.7845806863628,15)" font-family="sans-serif" font-size="10px" fill="#000" opacity="1">Oct 29</text><text text-anchor="middle" transform="translate(413.5290685860939,15)" font-family="sans-serif" font-size="10px" fill="#000" opacity="1">Nov 05</text><text text-anchor="middle" transform="translate(457.0147133621579,15)" font-family="sans-serif" font-size="10px" fill="#000" opacity="1">Nov 12</text></g><g class="mark-rule role-axis-domain" pointer-events="none"><line transform="translate(0,0)" x2="500" y2="0" stroke="#e1e8f0" stroke-width="1" opacity="1"/></g><g class="mark-text role-axis-title" pointer-events="none"><text text-anchor="middle" transform="translate(250,36)" font-family="sans-serif" font-size="11px" font-weight="400" fill="#1c2a3a" opacity="1">date</text></g></g><path class="foreground" aria-hidden="true" d="" pointer-events="none" display="none"/></g></g><g class="mark-group role-axis" role="graphics-symbol" aria-roledescription="axis" aria-label="Y-axis titled 'sentiment' for a linear scale with values from −1.0 to 1.0"><g transform="translate(0.5,0.5)"><path class="background" aria-hidden="true" d="M0,0h0v0h0Z" pointer-events="none"/><g><g class="mark-rule role-axis-tick" pointer-events="none"><line transform="translate(0,300)" x2="-5" y2="0" stroke="#888" stroke-width="1" opacity="1"/><line transform="translate(0,270)" x2="-5" y2="0" stroke="#888" stroke-width="1" opacity="1"/><line transform="translate(0,240)" x2="-5" y2="0" stroke="#888" stroke-width="1" opacity="1"/><line transform="translate(0,210)" x2="-5" y2="0" stroke="#888" stroke-width="1" opacity="1"/><line transform="translate(0,180)" x2="-5" y2="0" stroke="#888" stroke-width="1" opacity="1"/><line transform="translate(0,150)" x2="-5" y2="0" stroke="#888" stroke-width="1" opacity="1"/><line transform="translate(0,120)" x2="-5" y2="0" stroke="#888" stroke-width="1" opacity="1"/><line transform="translate(0,90)" x2="-5" y2="0" stroke="#888" stroke-width="1" opacity="1"/><line transform="translate(0,60)" x2="-5" y2="0" stroke="#888" stroke-width="1" opacity="1"/><line transform="translate(0,30)" x2="-5" y2="0" stroke="#888" stroke-width="1" opacity="1"/><line transform="translate(0,0)" x2="-5" y2="0" stroke="#888" stroke-width="1" opacity="1"/></g><g class="mark-text role-axis-label" pointer-events="none"><text text-anchor="end" transform="translate(-13,304)" font-family="sans-serif" font-size="12px" fill="#000" opacity="1">−1.0</text><text text-anchor="end" transform="translate(-13,274)" font-family="sans-serif" font-size="12px" fill="#000" opacity="1">−0.8</text><text text-anchor="end" transform="translate(-13,244)" font-family="sans-serif" font-size="12px" fill="#000" opacity="1">−0.6</text><text text-anchor="end" transform="translate(-13,214)" font-family="sans-serif" font-size="12px" fill="#000" opacity="1">−0.4</text><text text-anchor="end" transform="translate(-13,184)" font-family="sans-serif" font-size="12px" fill="#000" opacity="1">−0.2</text><text text-anchor="end" transform="translate(-13,154)" font-family="sans-serif" font-size="12px" fill="#000" opacity="1">0.0</text><text text-anchor="end" transform="translate(-13,124)" font-family="sans-serif" font-size="12px" fill="#000" opacity="1">0.2</text><text text-anchor="end" transform="translate(-13,94.00000000000001)" font-family="sans-serif" font-size="12px" fill="#000" opacity="1">0.4</text><text text-anchor="end" transform="translate(-13,63.999999999999986)" font-family="sans-serif" font-size="12px" fill="#000" opacity="1">0.6</text><text text-anchor="end" transform="translate(-13,33.99999999999999)" font-family="sans-serif" font-size="12px" fill="#000" opacity="1">0.8</text><text text-anchor="end" transform="translate(-13,4)" font-family="sans-serif" font-size="12px" fill="#000" opacity="1">1.0</text></g><g class="mark-rule role-axis-domain" pointer-events="none"><line transform="translate(0,300)" x2="0" y2="-300" stroke="#888" stroke-width="1" opacity="1"/></g><g class="mark-text role-axis-title" pointer-events="none"><text text-anchor="middle" transform="translate(-47,150) rotate(-90) translate(0,-3)" font-family="sans-serif" font-size="12px" font-weight="400" fill="#1c2a3a" opacity="1">sentiment</text></g></g><path class="foreground" aria-hidden="true" d="" pointer-events="none" display="none"/></g></g><g class="mark-symbol role-mark layer_0_marks" role="graphics-object" aria-roledescription="symbol mark container"><path aria-label="date: Aug 30, 2023; sentiment: −0.909636296332; Region: de" role="graphics-symbol" aria-roledescription="point" transform="translate(0,286.44544444978237)" d="M-2.739,-2.739h5.477v5.477h-5.477Z" stroke="#ffa83f" stroke-width="2" opacity="0.7"/><path aria-label="date: Aug 30, 2023; sentiment: −0.0176644925959; Region: de" role="graphics-symbol" aria-roledescription="point" transform="translate(1.7809844925646594,152.64967388939112)" d="M-2.739,-2.739h5.477v5.477h-5.477Z" stroke="#ffa83f" stroke-width="2" opacity="0.7"/><path aria-label="date: Sep 04, 2023; sentiment: −0.933592336252; Region: bav" role="graphics-symbol" aria-roledescription="point" transform="translate(31.47359821708856,290.03885043784976)" d="M2.739,0A2.739,2.739,0,1,1,-2.739,0A2.739,2.739,0,1,1,2.739,0" stroke="#6583ff" stroke-width="2" opacity="0.7"/><path aria-label="date: Sep 05, 2023; sentiment: −0.00960184750147; Region: de" role="graphics-symbol" aria-roledescription="point" transform="translate(35.85300816693196,151.44027712522075)" d="M-2.739,-2.739h5.477v5.477h-5.477Z" stroke="#ffa83f" stroke-width="2" opacity="0.7"/><path aria-label="date: Sep 06, 2023; sentiment: −0.0297511499375; Region: de" role="graphics-symbol" aria-roledescription="point" transform="translate(45.38914834716443,154.46267249062657)" d="M-2.739,-2.739h5.477v5.477h-5.477Z" stroke="#ffa83f" stroke-width="2" opacity="0.7"/><path aria-label="date: Sep 12, 2023; sentiment: −0.298542305827; Region: de" role="graphics-symbol" aria-roledescription="point" transform="translate(79.44700755059772,194.78134587407112)" d="M-2.739,-2.739h5.477v5.477h-5.477Z" stroke="#ffa83f" stroke-width="2" opacity="0.7"/><path aria-label="date: Sep 12, 2023; sentiment: −0.450733914971; Region: de" role="graphics-symbol" aria-roledescription="point" transform="translate(83.33734779844576,217.61008724570274)" d="M-2.739,-2.739h5.477v5.477h-5.477Z" stroke="#ffa83f" stroke-width="2" opacity="0.7"/><path aria-label="date: Sep 14, 2023; sentiment: −0.970151489135; Region: de" role="graphics-symbol" aria-roledescription="point" transform="translate(95.26771497173074,295.5227233702317)" d="M-2.739,-2.739h5.477v5.477h-5.477Z" stroke="#ffa83f" stroke-width="2" opacity="0.7"/><path aria-label="date: Sep 18, 2023; sentiment: −0.00648542761337; Region: de" role="graphics-symbol" aria-roledescription="point" transform="translate(119.84731419341823,150.97281414200552)" d="M-2.739,-2.739h5.477v5.477h-5.477Z" stroke="#ffa83f" stroke-width="2" opacity="0.7"/><path aria-label="date: Sep 20, 2023; sentiment: −0.993183131795; Region: de" role="graphics-symbol" aria-roledescription="point" transform="translate(129.74044218170815,298.9774697693065)" d="M-2.739,-2.739h5.477v5.477h-5.477Z" stroke="#ffa83f" stroke-width="2" opacity="0.7"/><path aria-label="date: Sep 23, 2023; sentiment: −0.00319876568392; Region: de" role="graphics-symbol" aria-roledescription="point" transform="translate(150.62153267053196,150.47981485258788)" d="M-2.739,-2.739h5.477v5.477h-5.477Z" stroke="#ffa83f" stroke-width="2" opacity="0.7"/><path aria-label="date: Sep 26, 2023; sentiment: −0.920287443325; Region: de" role="graphics-symbol" aria-roledescription="point" transform="translate(167.32338522514823,288.0431164987385)" d="M-2.739,-2.739h5.477v5.477h-5.477Z" stroke="#ffa83f" stroke-width="2" opacity="0.7"/><path aria-label="date: Sep 27, 2023; sentiment: −0.417996287346; Region: de" role="graphics-symbol" aria-roledescription="point" transform="translate(172.5514411162811,212.69944310188293)" d="M-2.739,-2.739h5.477v5.477h-5.477Z" stroke="#ffa83f" stroke-width="2" opacity="0.7"/><path aria-label="date: Oct 01, 2023; sentiment: −0.0133923157118; Region: de" role="graphics-symbol" aria-roledescription="point" transform="translate(197.63686294213463,152.0088473567739)" d="M-2.739,-2.739h5.477v5.477h-5.477Z" stroke="#ffa83f" stroke-width="2" opacity="0.7"/><path aria-label="date: Oct 04, 2023; sentiment: 0.940011158586; Region: de" role="graphics-symbol" aria-roledescription="point" transform="translate(217.21590061804545,8.99832621216774)" d="M-2.739,-2.739h5.477v5.477h-5.477Z" stroke="#ffa83f" stroke-width="2" opacity="0.7"/><path aria-label="date: Oct 05, 2023; sentiment: −0.918235395104; Region: de" role="graphics-symbol" aria-roledescription="point" transform="translate(224.32301378526574,287.73530926555395)" d="M-2.739,-2.739h5.477v5.477h-5.477Z" stroke="#ffa83f" stroke-width="2" opacity="0.7"/><path aria-label="date: Oct 05, 2023; sentiment: −0.928428191692; Region: de" role="graphics-symbol" aria-roledescription="point" transform="translate(225.8088452159823,289.26422875374556)" d="M-2.739,-2.739h5.477v5.477h-5.477Z" stroke="#ffa83f" stroke-width="2" opacity="0.7"/><path aria-label="date: Oct 06, 2023; sentiment: −0.949489606544; Region: de" role="graphics-symbol" aria-roledescription="point" transform="translate(228.4665888891014,292.4234409816563)" d="M-2.739,-2.739h5.477v5.477h-5.477Z" stroke="#ffa83f" stroke-width="2" opacity="0.7"/><path aria-label="date: Oct 07, 2023; sentiment: −0.598396398127; Region: de" role="graphics-symbol" aria-roledescription="point" transform="translate(237.92349431314466,239.75945971906185)" d="M-2.739,-2.739h5.477v5.477h-5.477Z" stroke="#ffa83f" stroke-width="2" opacity="0.7"/><path aria-label="date: Oct 08, 2023; sentiment: −0.933003142476; Region: de" role="graphics-symbol" aria-roledescription="point" transform="translate(240.7658075136119,289.9504713714123)" d="M-2.739,-2.739h5.477v5.477h-5.477Z" stroke="#ffa83f" stroke-width="2" opacity="0.7"/><path aria-label="date: Oct 08, 2023; sentiment: −0.911531995982; Region: bav" role="graphics-symbol" aria-roledescription="point" transform="translate(241.44929716182827,286.72979939728975)" d="M2.739,0A2.739,2.739,0,1,1,-2.739,0A2.739,2.739,0,1,1,2.739,0" stroke="#6583ff" stroke-width="2" opacity="0.7"/><path aria-label="date: Oct 08, 2023; sentiment: −0.68423054181; Region: de" role="graphics-symbol" aria-roledescription="point" transform="translate(241.81922712606914,252.634581271559)" d="M-2.739,-2.739h5.477v5.477h-5.477Z" stroke="#ffa83f" stroke-width="2" opacity="0.7"/><path aria-label="date: Oct 08, 2023; sentiment: −0.982073112391; Region: de" role="graphics-symbol" aria-roledescription="point" transform="translate(243.67563562883566,297.3109668586403)" d="M-2.739,-2.739h5.477v5.477h-5.477Z" stroke="#ffa83f" stroke-width="2" opacity="0.7"/><path aria-label="date: Oct 08, 2023; sentiment: −0.0442595956847; Region: de" role="graphics-symbol" aria-roledescription="point" transform="translate(243.53729835940916,156.63893935270607)" d="M-2.739,-2.739h5.477v5.477h-5.477Z" stroke="#ffa83f" stroke-width="2" opacity="0.7"/><path aria-label="date: Oct 08, 2023; sentiment: −0.959588949569; Region: bav" role="graphics-symbol" aria-roledescription="point" transform="translate(243.97920109220294,293.93834243528545)" d="M2.739,0A2.739,2.739,0,1,1,-2.739,0A2.739,2.739,0,1,1,2.739,0" stroke="#6583ff" stroke-width="2" opacity="0.7"/><path aria-label="date: Oct 08, 2023; sentiment: −0.00484531745315; Region: de" role="graphics-symbol" aria-roledescription="point" transform="translate(243.8483415130157,150.7267976179719)" d="M-2.739,-2.739h5.477v5.477h-5.477Z" stroke="#ffa83f" stroke-width="2" opacity="0.7"/><path aria-label="date: Oct 08, 2023; sentiment: −0.915425725281; Region: de" role="graphics-symbol" aria-roledescription="point" transform="translate(244.20403510545486,287.3138587921858)" d="M-2.739,-2.739h5.477v5.477h-5.477Z" stroke="#ffa83f" stroke-width="2" opacity="0.7"/><path aria-label="date: Oct 08, 2023; sentiment: −0.905645936728; Region: bav" role="graphics-symbol" aria-roledescription="point" transform="translate(244.05944246053974,285.84689050912857)" d="M2.739,0A2.739,2.739,0,1,1,-2.739,0A2.739,2.739,0,1,1,2.739,0" stroke="#6583ff" stroke-width="2" opacity="0.7"/><path aria-label="date: Oct 08, 2023; sentiment: −0.951279729605; Region: de" role="graphics-symbol" aria-roledescription="point" transform="translate(244.01623003906087,292.69195944070816)" d="M-2.739,-2.739h5.477v5.477h-5.477Z" stroke="#ffa83f" stroke-width="2" opacity="0.7"/><path aria-label="date: Oct 08, 2023; sentiment: −0.135646313429; Region: de" role="graphics-symbol" aria-roledescription="point" transform="translate(243.99473167962296,170.34694701433182)" d="M-2.739,-2.739h5.477v5.477h-5.477Z" stroke="#ffa83f" stroke-width="2" opacity="0.7"/><path aria-label="date: Oct 08, 2023; sentiment: −0.0000602695690759; Region: de" role="graphics-symbol" aria-roledescription="point" transform="translate(244.41678977293563,150.00904043536138)" d="M-2.739,-2.739h5.477v5.477h-5.477Z" stroke="#ffa83f" stroke-width="2" opacity="0.7"/><path aria-label="date: Oct 08, 2023; sentiment: −0.532961264253; Region: de" role="graphics-symbol" aria-roledescription="point" transform="translate(244.31224591132118,229.9441896378994)" d="M-2.739,-2.739h5.477v5.477h-5.477Z" stroke="#ffa83f" stroke-width="2" opacity="0.7"/><path aria-label="date: Oct 08, 2023; sentiment: −0.0449933512136; Region: bav" role="graphics-symbol" aria-roledescription="point" transform="translate(244.31584095470546,156.7490026820451)" d="M2.739,0A2.739,2.739,0,1,1,-2.739,0A2.739,2.739,0,1,1,2.739,0" stroke="#6583ff" stroke-width="2" opacity="0.7"/><path aria-label="date: Oct 08, 2023; sentiment: −0.0262286122888; Region: de" role="graphics-symbol" aria-roledescription="point" transform="translate(244.63810064367095,153.9342918433249)" d="M-2.739,-2.739h5.477v5.477h-5.477Z" stroke="#ffa83f" stroke-width="2" opacity="0.7"/><path aria-label="date: Oct 08, 2023; sentiment: −0.933040030301; Region: de" role="graphics-symbol" aria-roledescription="point" transform="translate(244.6559320588569,289.9560045450926)" d="M-2.739,-2.739h5.477v5.477h-5.477Z" stroke="#ffa83f" stroke-width="2" opacity="0.7"/><path aria-label="date: Oct 08, 2023; sentiment: −0.0377803659067; Region: de" role="graphics-symbol" aria-roledescription="point" transform="translate(244.78499411635198,155.66705488599837)" d="M-2.739,-2.739h5.477v5.477h-5.477Z" stroke="#ffa83f" stroke-width="2" opacity="0.7"/><path aria-label="date: Oct 08, 2023; sentiment: 0.830320037901; Region: bav" role="graphics-symbol" aria-roledescription="point" transform="translate(244.88536772764067,25.451994314789772)" d="M2.739,0A2.739,2.739,0,1,1,-2.739,0A2.739,2.739,0,1,1,2.739,0" stroke="#6583ff" stroke-width="2" opacity="0.7"/><path aria-label="date: Oct 08, 2023; sentiment: −0.880545563996; Region: de" role="graphics-symbol" aria-roledescription="point" transform="translate(245.1071819044498,282.0818345993757)" d="M-2.739,-2.739h5.477v5.477h-5.477Z" stroke="#ffa83f" stroke-width="2" opacity="0.7"/><path aria-label="date: Oct 08, 2023; sentiment: −0.0288711842149; Region: de" role="graphics-symbol" aria-roledescription="point" transform="translate(245.52111519971402,154.33067763224244)" d="M-2.739,-2.739h5.477v5.477h-5.477Z" stroke="#ffa83f" stroke-width="2" opacity="0.7"/><path aria-label="date: Oct 09, 2023; sentiment: −0.984028407373; Region: de" role="graphics-symbol" aria-roledescription="point" transform="translate(245.7542897136174,297.60426110588014)" d="M-2.739,-2.739h5.477v5.477h-5.477Z" stroke="#ffa83f" stroke-width="2" opacity="0.7"/><path aria-label="date: Oct 09, 2023; sentiment: −0.0159278931096; Region: de" role="graphics-symbol" aria-roledescription="point" transform="translate(246.38471652148203,152.38918396644294)" d="M-2.739,-2.739h5.477v5.477h-5.477Z" stroke="#ffa83f" stroke-width="2" opacity="0.7"/><path aria-label="date: Oct 09, 2023; sentiment: −0.0000133175062729; Region: de" role="graphics-symbol" aria-roledescription="point" transform="translate(246.69985802454667,150.00199762594093)" d="M-2.739,-2.739h5.477v5.477h-5.477Z" stroke="#ffa83f" stroke-width="2" opacity="0.7"/><path aria-label="date: Oct 09, 2023; sentiment: −0.0164497802034; Region: de" role="graphics-symbol" aria-roledescription="point" transform="translate(246.98681438747866,152.4674670305103)" d="M-2.739,-2.739h5.477v5.477h-5.477Z" stroke="#ffa83f" stroke-width="2" opacity="0.7"/><path aria-label="date: Oct 09, 2023; sentiment: −0.00621317606419; Region: de" role="graphics-symbol" aria-roledescription="point" transform="translate(246.83122090980768,150.931976409629)" d="M-2.739,-2.739h5.477v5.477h-5.477Z" stroke="#ffa83f" stroke-width="2" opacity="0.7"/><path aria-label="date: Oct 09, 2023; sentiment: −0.0000021979506073; Region: de" role="graphics-symbol" aria-roledescription="point" transform="translate(246.91297219636587,150.0003296925911)" d="M-2.739,-2.739h5.477v5.477h-5.477Z" stroke="#ffa83f" stroke-width="2" opacity="0.7"/><path aria-label="date: Oct 09, 2023; sentiment: −0.995886410819; Region: de" role="graphics-symbol" aria-roledescription="point" transform="translate(247.06791856622766,299.382961622905)" d="M-2.739,-2.739h5.477v5.477h-5.477Z" stroke="#ffa83f" stroke-width="2" opacity="0.7"/><path aria-label="date: Oct 09, 2023; sentiment: −0.968155211769; Region: de" role="graphics-symbol" aria-roledescription="point" transform="translate(246.8703349818285,295.22328176535666)" d="M-2.739,-2.739h5.477v5.477h-5.477Z" stroke="#ffa83f" stroke-width="2" opacity="0.7"/><path aria-label="date: Oct 09, 2023; sentiment: −0.766152732074; Region: de" role="graphics-symbol" aria-roledescription="point" transform="translate(247.17713598424163,264.9229098111391)" d="M-2.739,-2.739h5.477v5.477h-5.477Z" stroke="#ffa83f" stroke-width="2" opacity="0.7"/><path aria-label="date: Oct 09, 2023; sentiment: −0.00791497738101; Region: de" role="graphics-symbol" aria-roledescription="point" transform="translate(247.116739255386,151.18724660715088)" d="M-2.739,-2.739h5.477v5.477h-5.477Z" stroke="#ffa83f" stroke-width="2" opacity="0.7"/><path aria-label="date: Oct 09, 2023; sentiment: −0.162448270246; Region: de" role="graphics-symbol" aria-roledescription="point" transform="translate(247.27873191028092,174.36724053695798)" d="M-2.739,-2.739h5.477v5.477h-5.477Z" stroke="#ffa83f" stroke-width="2" opacity="0.7"/><path aria-label="date: Oct 09, 2023; sentiment: −0.00302294851281; Region: de" role="graphics-symbol" aria-roledescription="point" transform="translate(247.4090162825267,150.45344227692112)" d="M-2.739,-2.739h5.477v5.477h-5.477Z" stroke="#ffa83f" stroke-width="2" opacity="0.7"/><path aria-label="date: Oct 09, 2023; sentiment: −0.0000290632269753; Region: de" role="graphics-symbol" aria-roledescription="point" transform="translate(247.8571024899414,150.0043594840463)" d="M-2.739,-2.739h5.477v5.477h-5.477Z" stroke="#ffa83f" stroke-width="2" opacity="0.7"/><path aria-label="date: Oct 09, 2023; sentiment: −0.267019879073; Region: de" role="graphics-symbol" aria-roledescription="point" transform="translate(247.93748766001357,190.0529818609357)" d="M-2.739,-2.739h5.477v5.477h-5.477Z" stroke="#ffa83f" stroke-width="2" opacity="0.7"/><path aria-label="date: Oct 09, 2023; sentiment: −0.729653313756; Region: de" role="graphics-symbol" aria-roledescription="point" transform="translate(248.18259771795272,259.44799706339836)" d="M-2.739,-2.739h5.477v5.477h-5.477Z" stroke="#ffa83f" stroke-width="2" opacity="0.7"/><path aria-label="date: Oct 09, 2023; sentiment: −0.997711212724; Region: de" role="graphics-symbol" aria-roledescription="point" transform="translate(248.42044578825568,299.6566819085274)" d="M-2.739,-2.739h5.477v5.477h-5.477Z" stroke="#ffa83f" stroke-width="2" opacity="0.7"/><path aria-label="date: Oct 09, 2023; sentiment: −0.00786119443364; Region: de" role="graphics-symbol" aria-roledescription="point" transform="translate(249.13434950350293,151.17917916504666)" d="M-2.739,-2.739h5.477v5.477h-5.477Z" stroke="#ffa83f" stroke-width="2" opacity="0.7"/><path aria-label="date: Oct 09, 2023; sentiment: −0.956149148755; Region: de" role="graphics-symbol" aria-roledescription="point" transform="translate(249.1099751093576,293.42237231321633)" d="M-2.739,-2.739h5.477v5.477h-5.477Z" stroke="#ffa83f" stroke-width="2" opacity="0.7"/><path aria-label="date: Oct 09, 2023; sentiment: −0.937006572261; Region: de" role="graphics-symbol" aria-roledescription="point" transform="translate(249.14570984059722,290.5509858392179)" d="M-2.739,-2.739h5.477v5.477h-5.477Z" stroke="#ffa83f" stroke-width="2" opacity="0.7"/><path aria-label="date: Oct 09, 2023; sentiment: −0.0262448536232; Region: de" role="graphics-symbol" aria-roledescription="point" transform="translate(249.32769093670868,153.9367280434817)" d="M-2.739,-2.739h5.477v5.477h-5.477Z" stroke="#ffa83f" stroke-width="2" opacity="0.7"/><path aria-label="date: Oct 09, 2023; sentiment: −0.985309279524; Region: de" role="graphics-symbol" aria-roledescription="point" transform="translate(249.26190164277665,297.7963919285685)" d="M-2.739,-2.739h5.477v5.477h-5.477Z" stroke="#ffa83f" stroke-width="2" opacity="0.7"/><path aria-label="date: Oct 09, 2023; sentiment: −0.986357772257; Region: de" role="graphics-symbol" aria-roledescription="point" transform="translate(249.372628979012,297.95366583857685)" d="M-2.739,-2.739h5.477v5.477h-5.477Z" stroke="#ffa83f" stroke-width="2" opacity="0.7"/><path aria-label="date: Oct 10, 2023; sentiment: −0.9753529015; Region: de" role="graphics-symbol" aria-roledescription="point" transform="translate(254.3342202545032,296.30293522495776)" d="M-2.739,-2.739h5.477v5.477h-5.477Z" stroke="#ffa83f" stroke-width="2" opacity="0.7"/><path aria-label="date: Oct 10, 2023; sentiment: −0.920710783452; Region: de" role="graphics-symbol" aria-roledescription="point" transform="translate(254.40497070830554,288.10661751776934)" d="M-2.739,-2.739h5.477v5.477h-5.477Z" stroke="#ffa83f" stroke-width="2" opacity="0.7"/><path aria-label="date: Oct 10, 2023; sentiment: −0.962651913054; Region: de" role="graphics-symbol" aria-roledescription="point" transform="translate(254.3639872137249,294.3977869581431)" d="M-2.739,-2.739h5.477v5.477h-5.477Z" stroke="#ffa83f" stroke-width="2" opacity="0.7"/><path aria-label="date: Oct 10, 2023; sentiment: −0.0000472955944133; Region: de" role="graphics-symbol" aria-roledescription="point" transform="translate(254.957528876467,150.007094339162)" d="M-2.739,-2.739h5.477v5.477h-5.477Z" stroke="#ffa83f" stroke-width="2" opacity="0.7"/><path aria-label="date: Oct 11, 2023; sentiment: −0.000155994777742; Region: de" role="graphics-symbol" aria-roledescription="point" transform="translate(260.0070549131373,150.02339921666135)" d="M-2.739,-2.739h5.477v5.477h-5.477Z" stroke="#ffa83f" stroke-width="2" opacity="0.7"/><path aria-label="date: Oct 14, 2023; sentiment: −0.986814909149; Region: de" role="graphics-symbol" aria-roledescription="point" transform="translate(280.4509881264345,298.0222363723442)" d="M-2.739,-2.739h5.477v5.477h-5.477Z" stroke="#ffa83f" stroke-width="2" opacity="0.7"/><path aria-label="date: Oct 15, 2023; sentiment: −0.00850310642272; Region: de" role="graphics-symbol" aria-roledescription="point" transform="translate(287.5716186567796,151.27546596340835)" d="M-2.739,-2.739h5.477v5.477h-5.477Z" stroke="#ffa83f" stroke-width="2" opacity="0.7"/><path aria-label="date: Oct 16, 2023; sentiment: −0.0745712323114; Region: de" role="graphics-symbol" aria-roledescription="point" transform="translate(294.0559265081099,161.18568484671414)" d="M-2.739,-2.739h5.477v5.477h-5.477Z" stroke="#ffa83f" stroke-width="2" opacity="0.7"/><path aria-label="date: Oct 17, 2023; sentiment: −0.462701842189; Region: de" role="graphics-symbol" aria-roledescription="point" transform="translate(298.1030106475119,219.40527632832527)" d="M-2.739,-2.739h5.477v5.477h-5.477Z" stroke="#ffa83f" stroke-width="2" opacity="0.7"/><path aria-label="date: Oct 17, 2023; sentiment: −0.0474283276126; Region: de" role="graphics-symbol" aria-roledescription="point" transform="translate(298.5659084336698,157.11424914188683)" d="M-2.739,-2.739h5.477v5.477h-5.477Z" stroke="#ffa83f" stroke-width="2" opacity="0.7"/><path aria-label="date: Oct 17, 2023; sentiment: −0.0368726234883; Region: de" role="graphics-symbol" aria-roledescription="point" transform="translate(300.5341946865546,155.53089352324605)" d="M-2.739,-2.739h5.477v5.477h-5.477Z" stroke="#ffa83f" stroke-width="2" opacity="0.7"/><path aria-label="date: Oct 18, 2023; sentiment: −0.00134504213929; Region: de" role="graphics-symbol" aria-roledescription="point" transform="translate(307.4130225988741,150.20175632089376)" d="M-2.739,-2.739h5.477v5.477h-5.477Z" stroke="#ffa83f" stroke-width="2" opacity="0.7"/><path aria-label="date: Oct 20, 2023; sentiment: −0.918395826593; Region: de" role="graphics-symbol" aria-roledescription="point" transform="translate(318.03558488983134,287.7593739889562)" d="M-2.739,-2.739h5.477v5.477h-5.477Z" stroke="#ffa83f" stroke-width="2" opacity="0.7"/><path aria-label="date: Oct 21, 2023; sentiment: −0.985709018074; Region: de" role="graphics-symbol" aria-roledescription="point" transform="translate(324.0848205907979,297.8563527110964)" d="M-2.739,-2.739h5.477v5.477h-5.477Z" stroke="#ffa83f" stroke-width="2" opacity="0.7"/><path aria-label="date: Sep 23, 2023; sentiment: −0.00000399954069508; Region: bav" role="graphics-symbol" aria-roledescription="point" transform="translate(151.06063126948604,150.00059993110426)" d="M2.739,0A2.739,2.739,0,1,1,-2.739,0A2.739,2.739,0,1,1,2.739,0" stroke="#6583ff" stroke-width="2" opacity="0.7"/><path aria-label="date: Oct 23, 2023; sentiment: −0.959894564934; Region: de" role="graphics-symbol" aria-roledescription="point" transform="translate(337.09535449931906,293.98418474011123)" d="M-2.739,-2.739h5.477v5.477h-5.477Z" stroke="#ffa83f" stroke-width="2" opacity="0.7"/><path aria-label="date: Oct 24, 2023; sentiment: −0.0383487856016; Region: de" role="graphics-symbol" aria-roledescription="point" transform="translate(342.09627554943404,155.75231784023345)" d="M-2.739,-2.739h5.477v5.477h-5.477Z" stroke="#ffa83f" stroke-width="2" opacity="0.7"/><path aria-label="date: Oct 31, 2023; sentiment: −0.972002336755; Region: de" role="graphics-symbol" aria-roledescription="point" transform="translate(385.43366073633103,295.80035051330924)" d="M-2.739,-2.739h5.477v5.477h-5.477Z" stroke="#ffa83f" stroke-width="2" opacity="0.7"/><path aria-label="date: Oct 31, 2023; sentiment: −0.0046262772521; Region: de" role="graphics-symbol" aria-roledescription="point" transform="translate(384.7268033061169,150.69394158781506)" d="M-2.739,-2.739h5.477v5.477h-5.477Z" stroke="#ffa83f" stroke-width="2" opacity="0.7"/><path aria-label="date: Oct 31, 2023; sentiment: −0.845963336527; Region: de" role="graphics-symbol" aria-roledescription="point" transform="translate(383.9648698112559,276.89450047910213)" d="M-2.739,-2.739h5.477v5.477h-5.477Z" stroke="#ffa83f" stroke-width="2" opacity="0.7"/><path aria-label="date: Oct 27, 2023; sentiment: −0.971538763959; Region: de" role="graphics-symbol" aria-roledescription="point" transform="translate(360.66877297861856,295.7308145938441)" d="M-2.739,-2.739h5.477v5.477h-5.477Z" stroke="#ffa83f" stroke-width="2" opacity="0.7"/><path aria-label="date: Oct 26, 2023; sentiment: −0.990770135541; Region: de" role="graphics-symbol" aria-roledescription="point" transform="translate(353.7404772693316,298.6155203310773)" d="M-2.739,-2.739h5.477v5.477h-5.477Z" stroke="#ffa83f" stroke-width="2" opacity="0.7"/><path aria-label="date: Nov 01, 2023; sentiment: −0.0225172550417; Region: de" role="graphics-symbol" aria-roledescription="point" transform="translate(390.837154744616,153.37758825626224)" d="M-2.739,-2.739h5.477v5.477h-5.477Z" stroke="#ffa83f" stroke-width="2" opacity="0.7"/><path aria-label="date: Nov 01, 2023; sentiment: −0.96084664762; Region: de" role="graphics-symbol" aria-roledescription="point" transform="translate(391.81608505815126,294.12699714303017)" d="M-2.739,-2.739h5.477v5.477h-5.477Z" stroke="#ffa83f" stroke-width="2" opacity="0.7"/><path aria-label="date: Nov 01, 2023; sentiment: −0.0250934618525; Region: de" role="graphics-symbol" aria-roledescription="point" transform="translate(392.9124294886166,153.7640192778781)" d="M-2.739,-2.739h5.477v5.477h-5.477Z" stroke="#ffa83f" stroke-width="2" opacity="0.7"/><path aria-label="date: Nov 01, 2023; sentiment: −0.996062062099; Region: de" role="graphics-symbol" aria-roledescription="point" transform="translate(393.77617461212,299.4093093147967)" d="M-2.739,-2.739h5.477v5.477h-5.477Z" stroke="#ffa83f" stroke-width="2" opacity="0.7"/><path aria-label="date: Nov 02, 2023; sentiment: −0.00261924695224; Region: de" role="graphics-symbol" aria-roledescription="point" transform="translate(396.396242230572,150.39288704283535)" d="M-2.739,-2.739h5.477v5.477h-5.477Z" stroke="#ffa83f" stroke-width="2" opacity="0.7"/><path aria-label="date: Nov 02, 2023; sentiment: −0.976857332513; Region: de" role="graphics-symbol" aria-roledescription="point" transform="translate(397.86841249642833,296.52859987691045)" d="M-2.739,-2.739h5.477v5.477h-5.477Z" stroke="#ffa83f" stroke-width="2" opacity="0.7"/><path aria-label="date: Nov 02, 2023; sentiment: −0.0260542994365; Region: de" role="graphics-symbol" aria-roledescription="point" transform="translate(400.00099223197407,153.90814491547644)" d="M-2.739,-2.739h5.477v5.477h-5.477Z" stroke="#ffa83f" stroke-width="2" opacity="0.7"/><path aria-label="date: Nov 02, 2023; sentiment: −0.00523402239196; Region: de" role="graphics-symbol" aria-roledescription="point" transform="translate(399.9612310521441,150.785103358794)" d="M-2.739,-2.739h5.477v5.477h-5.477Z" stroke="#ffa83f" stroke-width="2" opacity="0.7"/><path aria-label="date: Nov 03, 2023; sentiment: −0.980916101485; Region: de" role="graphics-symbol" aria-roledescription="point" transform="translate(404.737821395081,297.1374152228236)" d="M-2.739,-2.739h5.477v5.477h-5.477Z" stroke="#ffa83f" stroke-width="2" opacity="0.7"/><path aria-label="date: Nov 08, 2023; sentiment: −0.964499165304; Region: bav" role="graphics-symbol" aria-roledescription="point" transform="translate(435.5471993964929,294.6748747956008)" d="M2.739,0A2.739,2.739,0,1,1,-2.739,0A2.739,2.739,0,1,1,2.739,0" stroke="#6583ff" stroke-width="2" opacity="0.7"/><path aria-label="date: Nov 11, 2023; sentiment: −0.966450763866; Region: de" role="graphics-symbol" aria-roledescription="point" transform="translate(453.5621055967779,294.9676145799458)" d="M-2.739,-2.739h5.477v5.477h-5.477Z" stroke="#ffa83f" stroke-width="2" opacity="0.7"/><path aria-label="date: Nov 14, 2023; sentiment: −0.96926024789; Region: de" role="graphics-symbol" aria-roledescription="point" transform="translate(473.67306589182454,295.3890371834859)" d="M-2.739,-2.739h5.477v5.477h-5.477Z" stroke="#ffa83f" stroke-width="2" opacity="0.7"/><path aria-label="date: Nov 16, 2023; sentiment: −0.952180542052; Region: de" role="graphics-symbol" aria-roledescription="point" transform="translate(484.35235796738544,292.8270813077688)" d="M-2.739,-2.739h5.477v5.477h-5.477Z" stroke="#ffa83f" stroke-width="2" opacity="0.7"/><path aria-label="date: Nov 17, 2023; sentiment: −0.974388314411; Region: de" role="graphics-symbol" aria-roledescription="point" transform="translate(491.9165449504811,296.1582471616566)" d="M-2.739,-2.739h5.477v5.477h-5.477Z" stroke="#ffa83f" stroke-width="2" opacity="0.7"/><path aria-label="date: Nov 18, 2023; sentiment: −0.0104974731803; Region: bav" role="graphics-symbol" aria-roledescription="point" transform="translate(500,151.5746209770441)" d="M2.739,0A2.739,2.739,0,1,1,-2.739,0A2.739,2.739,0,1,1,2.739,0" stroke="#6583ff" stroke-width="2" opacity="0.7"/></g><g class="mark-line role-mark layer_1_marks" role="graphics-object" aria-roledescription="line mark container"><path aria-label="date: Aug 30, 2023; sentiment: −0.430287681162" role="graphics-symbol" aria-roledescription="line mark" d="M0,214.543L1.781,214.489L31.474,213.529L35.853,213.366L45.389,212.967L79.447,210.941L83.337,210.669L95.268,209.867L119.847,209.415L129.74,210.152L150.622,208.547L151.061,208.421L167.323,202.749L172.551,202.915L197.637,211.823L217.216,205.767L224.323,230.755L225.809,234.079L228.467,239.483L237.923,251.161L240.766,236.394L241.449,230.557L241.819,227.963L243.537,221.978L243.676,221.788L243.848,221.586L243.979,221.456L243.995,221.442L244.016,221.422L244.059,221.384L244.204,221.267L244.312,221.173L244.316,221.17L244.417,221.094L244.638,220.992L244.656,220.987L244.785,220.965L244.885,220.963L245.107,220.996L245.521,221.149L245.754,221.26L246.385,221.552L246.7,221.663L246.831,221.699L246.87,221.709L246.913,221.719L246.987,221.734L247.068,221.749L247.117,221.757L247.177,221.766L247.279,221.778L247.409,221.788L247.857,221.782L247.937,221.775L248.183,221.744L248.42,221.701L249.11,221.528L249.134,221.521L249.146,221.518L249.262,221.484L249.328,221.464L249.373,221.45L254.334,220.61L254.364,220.613L254.405,220.618L254.958,221.199L260.007,232.152L280.451,201.419L287.572,196.559L294.056,201.393L298.103,205.786L298.566,206.219L300.534,207.76L307.413,213.798L318.036,225.541L324.085,228.283L337.095,225.129L342.096,225.575L353.74,227.837L360.669,229.818L383.965,239.145L384.727,239.432L385.434,239.693L390.837,241.504L391.816,241.802L392.912,242.126L393.776,242.374L396.396,243.095L397.868,243.481L399.961,244.01L400.001,244.019L404.738,245.144L435.547,251.625L453.562,255.514L473.673,260.19L484.352,262.792L491.917,264.664L500,266.667" stroke="firebrick" stroke-width="2" opacity="0.5"/></g><g class="mark-group role-legend" role="graphics-symbol" aria-roledescription="legend" aria-label="Symbol legend titled 'Region' for shape and stroke color with 2 values: bav, de"><g transform="translate(518,0)"><path class="background" aria-hidden="true" d="M0,0h40v52h-40Z" pointer-events="none"/><g><g class="mark-group role-legend-entry"><g transform="translate(0,23)"><path class="background" aria-hidden="true" d="M0,0h0v0h0Z" pointer-events="none"/><g><g class="mark-group role-scope" role="graphics-object" aria-roledescription="group mark container"><g transform="translate(0,0)"><path class="background" aria-hidden="true" d="M0,0h35v12.5h-35Z" pointer-events="none" opacity="1"/><g><g class="mark-symbol role-legend-symbol" pointer-events="none"><path transform="translate(6,6)" d="M5,0A5,5,0,1,1,-5,0A5,5,0,1,1,5,0" stroke="#6583ff" stroke-width="1.5" opacity="0.7"/></g><g class="mark-text role-legend-label" pointer-events="none"><text text-anchor="start" transform="translate(16,10)" font-family="sans-serif" font-size="12px" fill="#000" opacity="1">bav</text></g></g><path class="foreground" aria-hidden="true" d="" pointer-events="none" display="none"/></g><g transform="translate(0,16)"><path class="background" aria-hidden="true" d="M0,0h35v12.5h-35Z" pointer-events="none" opacity="1"/><g><g class="mark-symbol role-legend-symbol" pointer-events="none"><path transform="translate(6,6)" d="M-5,-5h10v10h-10Z" stroke="#ffa83f" stroke-width="1.5" opacity="0.7"/></g><g class="mark-text role-legend-label" pointer-events="none"><text text-anchor="start" transform="translate(16,10)" font-family="sans-serif" font-size="12px" fill="#000" opacity="1">de</text></g></g><path class="foreground" aria-hidden="true" d="" pointer-events="none" display="none"/></g></g></g><path class="foreground" aria-hidden="true" d="" pointer-events="none" display="none"/></g></g><g class="mark-text role-legend-title" pointer-events="none"><text text-anchor="start" transform="translate(0,10)" font-family="sans-serif" font-size="13px" font-weight="400" fill="#000" opacity="1">Region</text></g></g><path class="foreground" aria-hidden="true" d="" pointer-events="none" display="none"/></g></g><g class="mark-group role-title"><g transform="translate(249,-28)"><path class="background" aria-hidden="true" d="M0,0h0v0h0Z" pointer-events="none"/><g><g class="mark-text role-title-text" role="graphics-symbol" aria-roledescription="title" aria-label="Title text 'Sentiments for the FDP'" pointer-events="none"><text text-anchor="middle" transform="translate(0,14)" font-family="Inter" font-size="18px" font-weight="400" fill="#445668" opacity="1">Sentiments for the FDP</text></g></g><path class="foreground" aria-hidden="true" d="" pointer-events="none" display="none"/></g></g></g><path class="foreground" aria-hidden="true" d="" display="none"/></g></g></g></svg>