<svg xmlns="http://www.w3.org/2000/svg" xmlns:xlink="http://www.w3.org/1999/xlink" version="1.1" class="marks" width="564" height="276" viewBox="0 0 564 276"><rect width="564" height="276" fill="#fff"/><g fill="none" stroke-miterlimit="10" transform="translate(58,33)"><g class="mark-group role-frame root" role="graphics-object" aria-roledescription="group mark container"><g transform="translate(0,0)"><path class="background" aria-hidden="true" d="M0.5,0.5h500v200h-500Z" stroke="#ddd"/><g><g class="mark-group role-axis" aria-hidden="true"><g transform="translate(0.5,200.5)"><path class="background" aria-hidden="true" d="M0,0h0v0h0Z" pointer-events="none"/><g><g class="mark-rule role-axis-grid" pointer-events="none"><line transform="translate(0,-200)" x2="0" y2="200" stroke="#ddd" stroke-width="1" opacity="1"/><line transform="translate(56,-200)" x2="0" y2="200" stroke="#ddd" stroke-width="1" opacity="1"/><line transform="translate(111,-200)" x2="0" y2="200" stroke="#ddd" stroke-width="1" opacity="1"/><line transform="translate(167,-200)" x2="0" y2="200" stroke="#ddd" stroke-width="1" opacity="1"/><line transform="translate(222,-200)" x2="0" y2="200" stroke="#ddd" stroke-width="1" opacity="1"/><line transform="translate(278,-200)" x2="0" y2="200" stroke="#ddd" stroke-width="1" opacity="1"/><line transform="translate(333,-200)" x2="0" y2="200" stroke="#ddd" stroke-width="1" opacity="1"/><line transform="translate(389,-200)" x2="0" y2="200" stroke="#ddd" stroke-width="1" opacity="1"/><line transform="translate(444,-200)" x2="0" y2="200" stroke="#ddd" stroke-width="1" opacity="1"/><line transform="translate(500,-200)" x2="0" y2="200" stroke="#ddd" stroke-width="1" opacity="1"/></g></g><path class="foreground" aria-hidden="true" d="" pointer-events="none" display="none"/></g></g><g class="mark-group role-axis" aria-hidden="true"><g transform="translate(0.5,0.5)"><path class="background" aria-hidden="true" d="M0,0h0v0h0Z" pointer-events="none"/><g><g class="mark-rule role-axis-grid" pointer-events="none"><line transform="translate(0,200)" x2="500" y2="0" stroke="#e1e8f0" stroke-width="1" opacity="1"/><line transform="translate(0,160)" x2="500" y2="0" stroke="#e1e8f0" stroke-width="1" opacity="1"/><line transform="translate(0,120)" x2="500" y2="0" stroke="#e1e8f0" stroke-width="1" opacity="1"/><line transform="translate(0,80)" x2="500" y2="0" stroke="#e1e8f0" stroke-width="1" opacity="1"/><line transform="translate(0,40)" x2="500" y2="0" stroke="#e1e8f0" stroke-width="1" opacity="1"/><line transform="translate(0,0)" x2="500" y2="0" stroke="#e1e8f0" stroke-width="1" opacity="1"/></g></g><path class="foreground" aria-hidden="true" d="" pointer-events="none" display="none"/></g></g><g class="mark-group role-axis" role="graphics-symbol" aria-roledescription="axis" aria-label="X-axis titled 'Day of the year' for a linear scale with values from 240 to 285"><g transform="translate(0.5,200.5)"><path class="background" aria-hidden="true" d="M0,0h0v0h0Z" pointer-events="none"/><g><g class="mark-rule role-axis-tick" pointer-events="none"><line transform="translate(0,0)" x2="0" y2="5" stroke="#888" stroke-width="1" opacity="1"/><line transform="translate(56,0)" x2="0" y2="5" stroke="#888" stroke-width="1" opacity="1"/><line transform="translate(111,0)" x2="0" y2="5" stroke="#888" stroke-width="1" opacity="1"/><line transform="translate(167,0)" x2="0" y2="5" stroke="#888" stroke-width="1" opacity="1"/><line transform="translate(222,0)" x2="0" y2="5" stroke="#888" stroke-width="1" opacity="1"/><line transform="translate(278,0)" x2="0" y2="5" stroke="#888" stroke-width="1" opacity="1"/><line transform="translate(333,0)" x2="0" y2="5" stroke="#888" stroke-width="1" opacity="1"/><line transform="translate(389,0)" x2="0" y2="5" stroke="#888" stroke-width="1" opacity="1"/><line transform="translate(444,0)" x2="0" y2="5" stroke="#888" stroke-width="1" opacity="1"/><line transform="translate(500,0)" x2="0" y2="5" stroke="#888" stroke-width="1" opacity="1"/></g><g class="mark-text role-axis-label" pointer-events="none"><text text-anchor="start" transform="translate(0,15)" font-family="sans-serif" font-size="10px" fill="#000" opacity="1">240</text><text text-anchor="middle" transform="translate(55.55555555555555,15)" font-family="sans-serif" font-size="10px" fill="#000" opacity="1">245</text><text text-anchor="middle" transform="translate(111.1111111111111,15)" font-family="sans-serif" font-size="10px" fill="#000" opacity="1">250</text><text text-anchor="middle" transform="translate(166.66666666666666,15)" font-family="sans-serif" font-size="10px" fill="#000" opacity="1">255</text><text text-anchor="middle" transform="translate(222.2222222222222,15)" font-family="sans-serif" font-size="10px" fill="#000" opacity="1">260</text><text text-anchor="middle" transform="translate(277.77777777777777,15)" font-family="sans-serif" font-size="10px" fill="#000" opacity="1">265</text><text text-anchor="middle" transform="translate(333.3333333333333,15)" font-family="sans-serif" font-size="10px" fill="#000" opacity="1">270</text><text text-anchor="middle" transform="translate(388.8888888888889,15)" font-family="sans-serif" font-size="10px" fill="#000" opacity="1">275</text><text text-anchor="middle" transform="translate(444.4444444444444,15)" font-family="sans-serif" font-size="10px" fill="#000" opacity="1">280</text><text text-anchor="end" transform="translate(500,15)" font-family="sans-serif" font-size="10px" fill="#000" opacity="1">285</text></g><g class="mark-rule role-axis-domain" pointer-events="none"><line transform="translate(0,0)" x2="500" y2="0" stroke="#e1e8f0" stroke-width="1" opacity="1"/></g><g class="mark-text role-axis-title" pointer-events="none"><text text-anchor="middle" transform="translate(250,36)" font-family="sans-serif" font-size="11px" font-weight="400" fill="#1c2a3a" opacity="1">Day of the year</text></g></g><path class="foreground" aria-hidden="true" d="" pointer-events="none" display="none"/></g></g><g class="mark-group role-axis" role="graphics-symbol" aria-roledescription="axis" aria-label="Y-axis titled 'Sentiments, Polls' for a linear scale with values from 0.0 to 1.0"><g transform="translate(0.5,0.5)"><path class="background" aria-hidden="true" d="M0,0h0v0h0Z" pointer-events="none"/><g><g class="mark-rule role-axis-tick" pointer-events="none"><line transform="translate(0,200)" x2="-5" y2="0" stroke="#888" stroke-width="1" opacity="1"/><line transform="translate(0,160)" x2="-5" y2="0" stroke="#888" stroke-width="1" opacity="1"/><line transform="translate(0,120)" x2="-5" y2="0" stroke="#888" stroke-width="1" opacity="1"/><line transform="translate(0,80)" x2="-5" y2="0" stroke="#888" stroke-width="1" opacity="1"/><line transform="translate(0,40)" x2="-5" y2="0" stroke="#888" stroke-width="1" opacity="1"/><line transform="translate(0,0)" x2="-5" y2="0" stroke="#888" stroke-width="1" opacity="1"/></g><g class="mark-text role-axis-label" pointer-events="none"><text text-anchor="end" transform="translate(-13,204)" font-family="sans-serif" font-size="12px" fill="#000" opacity="1">0.0</text><text text-anchor="end" transform="translate(-13,164)" font-family="sans-serif" font-size="12px" fill="#000" opacity="1">0.2</text><text text-anchor="end" transform="translate(-13,124)" font-family="sans-serif" font-size="12px" fill="#000" opacity="1">0.4</text><text text-anchor="end" transform="translate(-13,84)" font-family="sans-serif" font-size="12px" fill="#000" opacity="1">0.6</text><text text-anchor="end" transform="translate(-13,43.99999999999999)" font-family="sans-serif" font-size="12px" fill="#000" opacity="1">0.8</text><text text-anchor="end" transform="translate(-13,4)" font-family="sans-serif" font-size="12px" fill="#000" opacity="1">1.0</text></g><g class="mark-rule role-axis-domain" pointer-events="none"><line transform="translate(0,200)" x2="0" y2="-200" stroke="#888" stroke-width="1" opacity="1"/></g><g class="mark-text role-axis-title" pointer-events="none"><text text-anchor="middle" transform="translate(-40,100) rotate(-90) translate(0,-3)" font-family="sans-serif" font-size="12px" font-weight="400" fill="#1c2a3a" opacity="1">Sentiments, Polls</text></g></g><path class="foreground" aria-hidden="true" d="" pointer-events="none" display="none"/></g></g><g class="mark-line role-mark layer_0_marks" role="graphics-object" aria-roledescription="line mark container"><path aria-label="day: 241; spd: 0.09" role="graphics-symbol" aria-roledescription="line mark" d="M11.111,182L16.667,182L16.667,182L27.778,182L27.778,182L38.889,182L38.889,182L50,182L50,182L61.111,182L61.111,182L72.222,182L72.222,182L83.333,182L83.333,182L94.444,182L94.444,182L105.556,182L105.556,182L116.667,182L116.667,182L127.778,182L127.778,182L138.889,182L138.889,182L150,182L150,182L161.111,182L161.111,182L172.222,182L172.222,182L183.333,182L183.333,182L194.444,182L194.444,182L205.556,182L205.556,182L216.667,182L216.667,182L227.778,182L227.778,182L238.889,182L238.889,182L250,182L250,182L261.111,182L261.111,182L272.222,182L272.222,182L283.333,182L283.333,182L294.444,182L294.444,182L305.556,182L305.556,182L316.667,182L316.667,182L327.778,182L327.778,182L338.889,182L338.889,182L350,182L350,182L361.111,182L361.111,182L372.222,182L372.222,182L383.333,182L383.333,182L394.444,182L394.444,182L405.556,182L405.556,182L416.667,182L416.667,182L427.778,182L427.778,182L438.889,182L438.889,182L450,182L450,183.2L455.556,183.2" fill-opacity="1" stroke="red" stroke-width="2"/></g><g class="mark-line role-mark layer_1_marks" role="graphics-object" aria-roledescription="line mark container"><path aria-label="day: 241; spd: 0.176570748998" role="graphics-symbol" aria-roledescription="line mark" d="M11.111,164.686L16.667,164.686L16.667,157.027L27.778,157.027L27.778,162.211L38.889,162.211L38.889,153.463L50,153.463L50,158.303L61.111,158.303L61.111,192.058L72.222,192.058L72.222,195.097L83.333,195.097L83.333,157.744L94.444,157.744L94.444,197.193L105.556,197.193L105.556,151.418L116.667,151.418L116.667,144.343L127.778,144.343L127.778,158.102L138.889,158.102L138.889,158.873L150,158.873L150,159.77L161.111,159.77L161.111,161.079L172.222,161.079L172.222,164.666L183.333,164.666L183.333,194.626L194.444,194.626L194.444,162.059L205.556,162.059L205.556,133.87L216.667,133.87L216.667,165.644L227.778,165.644L227.778,188.41L238.889,188.41L238.889,157.94L250,157.94L250,163.15L261.111,163.15L261.111,174.598L272.222,174.598L272.222,175.631L283.333,175.631L283.333,193.206L294.444,193.206L294.444,197.265L305.556,197.265L305.556,164.611L316.667,164.611L316.667,157.749L327.778,157.749L327.778,177.01L338.889,177.01L338.889,182.226L350,182.226L350,178.424L361.111,178.424L361.111,174.988L372.222,174.988L372.222,161.901L383.333,161.901L383.333,157.658L394.444,157.658L394.444,198.791L405.556,198.791L405.556,165.753L416.667,165.753L416.667,143.727L427.778,143.727L427.778,160.208L438.889,160.208L438.889,189.917L450,189.917L450,180.334L455.556,180.334" fill-opacity="1" stroke="green" stroke-width="2"/></g><g class="mark-text role-mark layer_2_marks" role="graphics-object" aria-roledescription="text mark container"><text aria-label="x: 243; y: 0.14" role="graphics-symbol" aria-roledescription="text mark" text-anchor="middle" transform="translate(33.333333333333336,177)" font-family="sans-serif" font-size="18px" fill="red">Polls</text></g><g class="mark-text role-mark layer_3_marks" role="graphics-object" aria-roledescription="text mark container"><text aria-label="x: 243; y: 0.380650175139" role="graphics-symbol" aria-roledescription="text mark" text-anchor="middle" transform="translate(33.333333333333336,128.8699649721521)" font-family="sans-serif" font-size="18px" fill="green">Sentiments</text></g><g class="mark-group role-title"><g transform="translate(224,-28)"><path class="background" aria-hidden="true" d="M0,0h0v0h0Z" pointer-events="none"/><g><g class="mark-text role-title-text" role="graphics-symbol" aria-roledescription="title" aria-label="Title text 'Sentiment -  SPD'" pointer-events="none"><text text-anchor="middle" transform="translate(0,14)" font-family="Inter" font-size="18px" font-weight="400" fill="#445668" opacity="1">Sentiment -  SPD</text></g></g><path class="foreground" aria-hidden="true" d="" pointer-events="none" display="none"/></g></g></g><path class="foreground" aria-hidden="true" d="" display="none"/></g></g></g></svg>