<svg xmlns="http://www.w3.org/2000/svg" xmlns:xlink="http://www.w3.org/1999/xlink" version="1.1" class="marks" width="564" height="276" viewBox="0 0 564 276"><rect width="564" height="276" fill="#fff"/><g fill="none" stroke-miterlimit="10" transform="translate(58,33)"><g class="mark-group role-frame root" role="graphics-object" aria-roledescription="group mark container"><g transform="translate(0,0)"><path class="background" aria-hidden="true" d="M0.5,0.5h500v200h-500Z" stroke="#ddd"/><g><g class="mark-group role-axis" aria-hidden="true"><g transform="translate(0.5,200.5)"><path class="background" aria-hidden="true" d="M0,0h0v0h0Z" pointer-events="none"/><g><g class="mark-rule role-axis-grid" pointer-events="none"><line transform="translate(0,-200)" x2="0" y2="200" stroke="#ddd" stroke-width="1" opacity="1"/><line transform="translate(56,-200)" x2="0" y2="200" stroke="#ddd" stroke-width="1" opacity="1"/><line transform="translate(111,-200)" x2="0" y2="200" stroke="#ddd" stroke-width="1" opacity="1"/><line transform="translate(167,-200)" x2="0" y2="200" stroke="#ddd" stroke-width="1" opacity="1"/><line transform="translate(222,-200)" x2="0" y2="200" stroke="#ddd" stroke-width="1" opacity="1"/><line transform="translate(278,-200)" x2="0" y2="200" stroke="#ddd" stroke-width="1" opacity="1"/><line transform="translate(333,-200)" x2="0" y2="200" stroke="#ddd" stroke-width="1" opacity="1"/><line transform="translate(389,-200)" x2="0" y2="200" stroke="#ddd" stroke-width="1" opacity="1"/><line transform="translate(444,-200)" x2="0" y2="200" stroke="#ddd" stroke-width="1" opacity="1"/><line transform="translate(500,-200)" x2="0" y2="200" stroke="#ddd" stroke-width="1" opacity="1"/></g></g><path class="foreground" aria-hidden="true" d="" pointer-events="none" display="none"/></g></g><g class="mark-group role-axis" aria-hidden="true"><g transform="translate(0.5,0.5)"><path class="background" aria-hidden="true" d="M0,0h0v0h0Z" pointer-events="none"/><g><g class="mark-rule role-axis-grid" pointer-events="none"><line transform="translate(0,200)" x2="500" y2="0" stroke="#e1e8f0" stroke-width="1" opacity="1"/><line transform="translate(0,160)" x2="500" y2="0" stroke="#e1e8f0" stroke-width="1" opacity="1"/><line transform="translate(0,120)" x2="500" y2="0" stroke="#e1e8f0" stroke-width="1" opacity="1"/><line transform="translate(0,80)" x2="500" y2="0" stroke="#e1e8f0" stroke-width="1" opacity="1"/><line transform="translate(0,40)" x2="500" y2="0" stroke="#e1e8f0" stroke-width="1" opacity="1"/><line transform="translate(0,0)" x2="500" y2="0" stroke="#e1e8f0" stroke-width="1" opacity="1"/></g></g><path class="foreground" aria-hidden="true" d="" pointer-events="none" display="none"/></g></g><g class="mark-group role-axis" role="graphics-symbol" aria-roledescription="axis" aria-label="X-axis titled 'Day of the year' for a linear scale with values from 240 to 285"><g transform="translate(0.5,200.5)"><path class="background" aria-hidden="true" d="M0,0h0v0h0Z" pointer-events="none"/><g><g class="mark-rule role-axis-tick" pointer-events="none"><line transform="translate(0,0)" x2="0" y2="5" stroke="#888" stroke-width="1" opacity="1"/><line transform="translate(56,0)" x2="0" y2="5" stroke="#888" stroke-width="1" opacity="1"/><line transform="translate(111,0)" x2="0" y2="5" stroke="#888" stroke-width="1" opacity="1"/><line transform="translate(167,0)" x2="0" y2="5" stroke="#888" stroke-width="1" opacity="1"/><line transform="translate(222,0)" x2="0" y2="5" stroke="#888" stroke-width="1" opacity="1"/><line transform="translate(278,0)" x2="0" y2="5" stroke="#888" stroke-width="1" opacity="1"/><line transform="translate(333,0)" x2="0" y2="5" stroke="#888" stroke-width="1" opacity="1"/><line transform="translate(389,0)" x2="0" y2="5" stroke="#888" stroke-width="1" opacity="1"/><line transform="translate(444,0)" x2="0" y2="5" stroke="#888" stroke-width="1" opacity="1"/><line transform="translate(500,0)" x2="0" y2="5" stroke="#888" stroke-width="1" opacity="1"/></g><g class="mark-text role-axis-label" pointer-events="none"><text text-anchor="start" transform="translate(0,15)" font-family="sans-serif" font-size="10px" fill="#000" opacity="1">240</text><text text-anchor="middle" transform="translate(55.55555555555555,15)" font-family="sans-serif" font-size="10px" fill="#000" opacity="1">245</text><text text-anchor="middle" transform="translate(111.1111111111111,15)" font-family="sans-serif" font-size="10px" fill="#000" opacity="1">250</text><text text-anchor="middle" transform="translate(166.66666666666666,15)" font-family="sans-serif" font-size="10px" fill="#000" opacity="1">255</text><text text-anchor="middle" transform="translate(222.2222222222222,15)" font-family="sans-serif" font-size="10px" fill="#000" opacity="1">260</text><text text-anchor="middle" transform="translate(277.77777777777777,15)" font-family="sans-serif" font-size="10px" fill="#000" opacity="1">265</text><text text-anchor="middle" transform="translate(333.3333333333333,15)" font-family="sans-serif" font-size="10px" fill="#000" opacity="1">270</text><text text-anchor="middle" transform="translate(388.8888888888889,15)" font-family="sans-serif" font-size="10px" fill="#000" opacity="1">275</text><text text-anchor="middle" transform="translate(444.4444444444444,15)" font-family="sans-serif" font-size="10px" fill="#000" opacity="1">280</text><text text-anchor="end" transform="translate(500,15)" font-family="sans-serif" font-size="10px" fill="#000" opacity="1">285</text></g><g class="mark-rule role-axis-domain" pointer-events="none"><line transform="translate(0,0)" x2="500" y2="0" stroke="#e1e8f0" stroke-width="1" opacity="1"/></g><g class="mark-text role-axis-title" pointer-events="none"><text text-anchor="middle" transform="translate(250,36)" font-family="sans-serif" font-size="11px" font-weight="400" fill="#1c2a3a" opacity="1">Day of the year</text></g></g><path class="foreground" aria-hidden="true" d="" pointer-events="none" display="none"/></g></g><g class="mark-group role-axis" role="graphics-symbol" aria-roledescription="axis" aria-label="Y-axis titled 'Sentiments, Polls' for a linear scale with values from 0.0 to 1.0"><g transform="translate(0.5,0.5)"><path class="background" aria-hidden="true" d="M0,0h0v0h0Z" pointer-events="none"/><g><g class="mark-rule role-axis-tick" pointer-events="none"><line transform="translate(0,200)" x2="-5" y2="0" stroke="#888" stroke-width="1" opacity="1"/><line transform="translate(0,160)" x2="-5" y2="0" stroke="#888" stroke-width="1" opacity="1"/><line transform="translate(0,120)" x2="-5" y2="0" stroke="#888" stroke-width="1" opacity="1"/><line transform="translate(0,80)" x2="-5" y2="0" stroke="#888" stroke-width="1" opacity="1"/><line transform="translate(0,40)" x2="-5" y2="0" stroke="#888" stroke-width="1" opacity="1"/><line transform="translate(0,0)" x2="-5" y2="0" stroke="#888" stroke-width="1" opacity="1"/></g><g class="mark-text role-axis-label" pointer-events="none"><text text-anchor="end" transform="translate(-13,204)" font-family="sans-serif" font-size="12px" fill="#000" opacity="1">0.0</text><text text-anchor="end" transform="translate(-13,164)" font-family="sans-serif" font-size="12px" fill="#000" opacity="1">0.2</text><text text-anchor="end" transform="translate(-13,124)" font-family="sans-serif" font-size="12px" fill="#000" opacity="1">0.4</text><text text-anchor="end" transform="translate(-13,84)" font-family="sans-serif" font-size="12px" fill="#000" opacity="1">0.6</text><text text-anchor="end" transform="translate(-13,43.99999999999999)" font-family="sans-serif" font-size="12px" fill="#000" opacity="1">0.8</text><text text-anchor="end" transform="translate(-13,4)" font-family="sans-serif" font-size="12px" fill="#000" opacity="1">1.0</text></g><g class="mark-rule role-axis-domain" pointer-events="none"><line transform="translate(0,200)" x2="0" y2="-200" stroke="#888" stroke-width="1" opacity="1"/></g><g class="mark-text role-axis-title" pointer-events="none"><text text-anchor="middle" transform="translate(-40,100) rotate(-90) translate(0,-3)" font-family="sans-serif" font-size="12px" font-weight="400" fill="#1c2a3a" opacity="1">Sentiments, Polls</text></g></g><path class="foreground" aria-hidden="true" d="" pointer-events="none" display="none"/></g></g><g class="mark-line role-mark layer_0_marks" role="graphics-object" aria-roledescription="line mark container"><path aria-label="day: 241; linke: 0.02" role="graphics-symbol" aria-roledescription="line mark" d="M11.111,196L16.667,196L16.667,196L27.778,196L27.778,196L38.889,196L38.889,196L50,196L50,196L61.111,196L61.111,196L72.222,196L72.222,197L83.333,197L83.333,197L94.444,197L94.444,198L105.556,198L105.556,198L116.667,198L116.667,198L127.778,198L127.778,198L138.889,198L138.889,198L150,198L150,198L161.111,198L161.111,198L172.222,198L172.222,198L183.333,198L183.333,198L194.444,198L194.444,198L205.556,198L205.556,198L216.667,198L216.667,198L227.778,198L227.778,198L238.889,198L238.889,198L250,198L250,198L261.111,198L261.111,198L272.222,198L272.222,198L283.333,198L283.333,198L294.444,198L294.444,198L305.556,198L305.556,196L316.667,196L316.667,196L327.778,196L327.778,196L338.889,196L338.889,196L350,196L350,196L361.111,196L361.111,196L372.222,196L372.222,196L383.333,196L383.333,196L394.444,196L394.444,196L405.556,196L405.556,196L416.667,196L416.667,196L427.778,196L427.778,196L438.889,196L438.889,196L450,196L450,197L455.556,197" fill-opacity="1" stroke="red" stroke-width="2"/></g><g class="mark-line role-mark layer_1_marks" role="graphics-object" aria-roledescription="line mark container"><path aria-label="day: 241; linke: 0.0273875082569" role="graphics-symbol" aria-roledescription="line mark" d="M11.111,194.522L16.667,194.522L16.667,193.335L27.778,193.335L27.778,194.139L38.889,194.139L38.889,192.782L50,192.782L50,193.533L61.111,193.533L61.111,195.17L72.222,195.17L72.222,136.958L83.333,136.958L83.333,158.313L94.444,158.313L94.444,193.821L105.556,193.821L105.556,197.547L116.667,197.547L116.667,197.19L127.778,197.19L127.778,197.866L138.889,197.866L138.889,197.816L150,197.816L150,197.968L161.111,197.968L161.111,198.035L172.222,198.035L172.222,197.33L183.333,197.33L183.333,198.172L194.444,198.172L194.444,197.994L205.556,197.994L205.556,197.738L216.667,197.738L216.667,197.708L227.778,197.708L227.778,197.947L238.889,197.947L238.889,198.568L250,198.568L250,163.327L261.111,163.327L261.111,150.342L272.222,150.342L272.222,152.397L283.333,152.397L283.333,161.958L294.444,161.958L294.444,159.603L305.556,159.603L305.556,164.237L316.667,164.237L316.667,157.932L327.778,157.932L327.778,161.812L338.889,161.812L338.889,158.152L350,158.152L350,163.946L361.111,163.946L361.111,158.204L372.222,158.204L372.222,164.37L383.333,164.37L383.333,197.995L394.444,197.995L394.444,196.765L405.556,196.765L405.556,198.051L416.667,198.051L416.667,156.983L427.778,156.983L427.778,155.844L438.889,155.844L438.889,198.093L450,198.093L450,180.472L455.556,180.472" fill-opacity="1" stroke="green" stroke-width="2"/></g><g class="mark-text role-mark layer_2_marks" role="graphics-object" aria-roledescription="text mark container"><text aria-label="x: 243; y: 0.07" role="graphics-symbol" aria-roledescription="text mark" text-anchor="middle" transform="translate(33.333333333333336,191)" font-family="sans-serif" font-size="18px" fill="red">Polls</text></g><g class="mark-text role-mark layer_3_marks" role="graphics-object" aria-roledescription="text mark container"><text aria-label="x: 243; y: 0.365212016844" role="graphics-symbol" aria-roledescription="text mark" text-anchor="middle" transform="translate(33.333333333333336,131.95759663123889)" font-family="sans-serif" font-size="18px" fill="green">Sentiments</text></g><g class="mark-group role-title"><g transform="translate(224,-28)"><path class="background" aria-hidden="true" d="M0,0h0v0h0Z" pointer-events="none"/><g><g class="mark-text role-title-text" role="graphics-symbol" aria-roledescription="title" aria-label="Title text 'Sentiment - Linke'" pointer-events="none"><text text-anchor="middle" transform="translate(0,14)" font-family="Inter" font-size="18px" font-weight="400" fill="#445668" opacity="1">Sentiment - Linke</text></g></g><path class="foreground" aria-hidden="true" d="" pointer-events="none" display="none"/></g></g></g><path class="foreground" aria-hidden="true" d="" display="none"/></g></g></g></svg>