<svg xmlns="http://www.w3.org/2000/svg" xmlns:xlink="http://www.w3.org/1999/xlink" version="1.1" class="marks" width="564" height="276" viewBox="0 0 564 276"><rect width="564" height="276" fill="#fff"/><g fill="none" stroke-miterlimit="10" transform="translate(58,33)"><g class="mark-group role-frame root" role="graphics-object" aria-roledescription="group mark container"><g transform="translate(0,0)"><path class="background" aria-hidden="true" d="M0.5,0.5h500v200h-500Z" stroke="#ddd"/><g><g class="mark-group role-axis" aria-hidden="true"><g transform="translate(0.5,200.5)"><path class="background" aria-hidden="true" d="M0,0h0v0h0Z" pointer-events="none"/><g><g class="mark-rule role-axis-grid" pointer-events="none"><line transform="translate(0,-200)" x2="0" y2="200" stroke="#ddd" stroke-width="1" opacity="1"/><line transform="translate(56,-200)" x2="0" y2="200" stroke="#ddd" stroke-width="1" opacity="1"/><line transform="translate(111,-200)" x2="0" y2="200" stroke="#ddd" stroke-width="1" opacity="1"/><line transform="translate(167,-200)" x2="0" y2="200" stroke="#ddd" stroke-width="1" opacity="1"/><line transform="translate(222,-200)" x2="0" y2="200" stroke="#ddd" stroke-width="1" opacity="1"/><line transform="translate(278,-200)" x2="0" y2="200" stroke="#ddd" stroke-width="1" opacity="1"/><line transform="translate(333,-200)" x2="0" y2="200" stroke="#ddd" stroke-width="1" opacity="1"/><line transform="translate(389,-200)" x2="0" y2="200" stroke="#ddd" stroke-width="1" opacity="1"/><line transform="translate(444,-200)" x2="0" y2="200" stroke="#ddd" stroke-width="1" opacity="1"/><line transform="translate(500,-200)" x2="0" y2="200" stroke="#ddd" stroke-width="1" opacity="1"/></g></g><path class="foreground" aria-hidden="true" d="" pointer-events="none" display="none"/></g></g><g class="mark-group role-axis" aria-hidden="true"><g transform="translate(0.5,0.5)"><path class="background" aria-hidden="true" d="M0,0h0v0h0Z" pointer-events="none"/><g><g class="mark-rule role-axis-grid" pointer-events="none"><line transform="translate(0,200)" x2="500" y2="0" stroke="#e1e8f0" stroke-width="1" opacity="1"/><line transform="translate(0,160)" x2="500" y2="0" stroke="#e1e8f0" stroke-width="1" opacity="1"/><line transform="translate(0,120)" x2="500" y2="0" stroke="#e1e8f0" stroke-width="1" opacity="1"/><line transform="translate(0,80)" x2="500" y2="0" stroke="#e1e8f0" stroke-width="1" opacity="1"/><line transform="translate(0,40)" x2="500" y2="0" stroke="#e1e8f0" stroke-width="1" opacity="1"/><line transform="translate(0,0)" x2="500" y2="0" stroke="#e1e8f0" stroke-width="1" opacity="1"/></g></g><path class="foreground" aria-hidden="true" d="" pointer-events="none" display="none"/></g></g><g class="mark-group role-axis" role="graphics-symbol" aria-roledescription="axis" aria-label="X-axis titled 'Day of the year' for a linear scale with values from 240 to 285"><g transform="translate(0.5,200.5)"><path class="background" aria-hidden="true" d="M0,0h0v0h0Z" pointer-events="none"/><g><g class="mark-rule role-axis-tick" pointer-events="none"><line transform="translate(0,0)" x2="0" y2="5" stroke="#888" stroke-width="1" opacity="1"/><line transform="translate(56,0)" x2="0" y2="5" stroke="#888" stroke-width="1" opacity="1"/><line transform="translate(111,0)" x2="0" y2="5" stroke="#888" stroke-width="1" opacity="1"/><line transform="translate(167,0)" x2="0" y2="5" stroke="#888" stroke-width="1" opacity="1"/><line transform="translate(222,0)" x2="0" y2="5" stroke="#888" stroke-width="1" opacity="1"/><line transform="translate(278,0)" x2="0" y2="5" stroke="#888" stroke-width="1" opacity="1"/><line transform="translate(333,0)" x2="0" y2="5" stroke="#888" stroke-width="1" opacity="1"/><line transform="translate(389,0)" x2="0" y2="5" stroke="#888" stroke-width="1" opacity="1"/><line transform="translate(444,0)" x2="0" y2="5" stroke="#888" stroke-width="1" opacity="1"/><line transform="translate(500,0)" x2="0" y2="5" stroke="#888" stroke-width="1" opacity="1"/></g><g class="mark-text role-axis-label" pointer-events="none"><text text-anchor="start" transform="translate(0,15)" font-family="sans-serif" font-size="10px" fill="#000" opacity="1">240</text><text text-anchor="middle" transform="translate(55.55555555555555,15)" font-family="sans-serif" font-size="10px" fill="#000" opacity="1">245</text><text text-anchor="middle" transform="translate(111.1111111111111,15)" font-family="sans-serif" font-size="10px" fill="#000" opacity="1">250</text><text text-anchor="middle" transform="translate(166.66666666666666,15)" font-family="sans-serif" font-size="10px" fill="#000" opacity="1">255</text><text text-anchor="middle" transform="translate(222.2222222222222,15)" font-family="sans-serif" font-size="10px" fill="#000" opacity="1">260</text><text text-anchor="middle" transform="translate(277.77777777777777,15)" font-family="sans-serif" font-size="10px" fill="#000" opacity="1">265</text><text text-anchor="middle" transform="translate(333.3333333333333,15)" font-family="sans-serif" font-size="10px" fill="#000" opacity="1">270</text><text text-anchor="middle" transform="translate(388.8888888888889,15)" font-family="sans-serif" font-size="10px" fill="#000" opacity="1">275</text><text text-anchor="middle" transform="translate(444.4444444444444,15)" font-family="sans-serif" font-size="10px" fill="#000" opacity="1">280</text><text text-anchor="end" transform="translate(500,15)" font-family="sans-serif" font-size="10px" fill="#000" opacity="1">285</text></g><g class="mark-rule role-axis-domain" pointer-events="none"><line transform="translate(0,0)" x2="500" y2="0" stroke="#e1e8f0" stroke-width="1" opacity="1"/></g><g class="mark-text role-axis-title" pointer-events="none"><text text-anchor="middle" transform="translate(250,36)" font-family="sans-serif" font-size="11px" font-weight="400" fill="#1c2a3a" opacity="1">Day of the year</text></g></g><path class="foreground" aria-hidden="true" d="" pointer-events="none" display="none"/></g></g><g class="mark-group role-axis" role="graphics-symbol" aria-roledescription="axis" aria-label="Y-axis titled 'Sentiments, Polls' for a linear scale with values from 0.0 to 1.0"><g transform="translate(0.5,0.5)"><path class="background" aria-hidden="true" d="M0,0h0v0h0Z" pointer-events="none"/><g><g class="mark-rule role-axis-tick" pointer-events="none"><line transform="translate(0,200)" x2="-5" y2="0" stroke="#888" stroke-width="1" opacity="1"/><line transform="translate(0,160)" x2="-5" y2="0" stroke="#888" stroke-width="1" opacity="1"/><line transform="translate(0,120)" x2="-5" y2="0" stroke="#888" stroke-width="1" opacity="1"/><line transform="translate(0,80)" x2="-5" y2="0" stroke="#888" stroke-width="1" opacity="1"/><line transform="translate(0,40)" x2="-5" y2="0" stroke="#888" stroke-width="1" opacity="1"/><line transform="translate(0,0)" x2="-5" y2="0" stroke="#888" stroke-width="1" opacity="1"/></g><g class="mark-text role-axis-label" pointer-events="none"><text text-anchor="end" transform="translate(-13,204)" font-family="sans-serif" font-size="12px" fill="#000" opacity="1">0.0</text><text text-anchor="end" transform="translate(-13,164)" font-family="sans-serif" font-size="12px" fill="#000" opacity="1">0.2</text><text text-anchor="end" transform="translate(-13,124)" font-family="sans-serif" font-size="12px" fill="#000" opacity="1">0.4</text><text text-anchor="end" transform="translate(-13,84)" font-family="sans-serif" font-size="12px" fill="#000" opacity="1">0.6</text><text text-anchor="end" transform="translate(-13,43.99999999999999)" font-family="sans-serif" font-size="12px" fill="#000" opacity="1">0.8</text><text text-anchor="end" transform="translate(-13,4)" font-family="sans-serif" font-size="12px" fill="#000" opacity="1">1.0</text></g><g class="mark-rule role-axis-domain" pointer-events="none"><line transform="translate(0,200)" x2="0" y2="-200" stroke="#888" stroke-width="1" opacity="1"/></g><g class="mark-text role-axis-title" pointer-events="none"><text text-anchor="middle" transform="translate(-40,100) rotate(-90) translate(0,-3)" font-family="sans-serif" font-size="12px" font-weight="400" fill="#1c2a3a" opacity="1">Sentiments, Polls</text></g></g><path class="foreground" aria-hidden="true" d="" pointer-events="none" display="none"/></g></g><g class="mark-line role-mark layer_0_marks" role="graphics-object" aria-roledescription="line mark container"><path aria-label="day: 241; fw: 0.15" role="graphics-symbol" aria-roledescription="line mark" d="M11.111,170L16.667,170L16.667,170L27.778,170L27.778,170L38.889,170L38.889,170L50,170L50,170L61.111,170L61.111,170L72.222,170L72.222,168.667L83.333,168.667L83.333,168L94.444,168L94.444,167.333L105.556,167.333L105.556,167L116.667,167L116.667,166L127.778,166L127.778,166L138.889,166L138.889,166L150,166L150,166L161.111,166L161.111,166L172.222,166L172.222,166L183.333,166L183.333,166L194.444,166L194.444,166L205.556,166L205.556,166L216.667,166L216.667,166L227.778,166L227.778,166L238.889,166L238.889,166L250,166L250,166L261.111,166L261.111,166L272.222,166L272.222,166L283.333,166L283.333,166L294.444,166L294.444,166L305.556,166L305.556,169.333L316.667,169.333L316.667,169.333L327.778,169.333L327.778,169.333L338.889,169.333L338.889,170L350,170L350,170L361.111,170L361.111,170L372.222,170L372.222,170L383.333,170L383.333,170L394.444,170L394.444,170L405.556,170L405.556,170L416.667,170L416.667,170L427.778,170L427.778,170L438.889,170L438.889,170L450,170L450,168.4L455.556,168.4" fill-opacity="1" stroke="red" stroke-width="2"/></g><g class="mark-line role-mark layer_1_marks" role="graphics-object" aria-roledescription="line mark container"><path aria-label="day: 241; fw: 0.172779107919" role="graphics-symbol" aria-roledescription="line mark" d="M11.111,165.444L16.667,165.444L16.667,164.236L27.778,164.236L27.778,168.54L38.889,168.54L38.889,163.479L50,163.479L50,163.381L61.111,163.381L61.111,150.608L72.222,150.608L72.222,163.919L83.333,163.919L83.333,175.941L94.444,175.941L94.444,171.313L105.556,171.313L105.556,167.8L116.667,167.8L116.667,169.6L127.778,169.6L127.778,178.786L138.889,178.786L138.889,173.828L150,173.828L150,178.254L161.111,178.254L161.111,176.144L172.222,176.144L172.222,172.69L183.333,172.69L183.333,162.78L194.444,162.78L194.444,165.378L205.556,165.378L205.556,165.3L216.667,165.3L216.667,170.085L227.778,170.085L227.778,182.921L238.889,182.921L238.889,171.209L250,171.209L250,166.507L261.111,166.507L261.111,177.859L272.222,177.859L272.222,182.879L283.333,182.879L283.333,165.634L294.444,165.634L294.444,178.889L305.556,178.889L305.556,191.324L316.667,191.324L316.667,156.842L327.778,156.842L327.778,171.232L338.889,171.232L338.889,175.751L350,175.751L350,175.314L361.111,175.314L361.111,168.601L372.222,168.601L372.222,180.418L383.333,180.418L383.333,167.259L394.444,167.259L394.444,180.445L405.556,180.445L405.556,178.645L416.667,178.645L416.667,196.755L427.778,196.755L427.778,173.859L438.889,173.859L438.889,175.006L450,175.006L450,171.035L455.556,171.035" fill-opacity="1" stroke="green" stroke-width="2"/></g><g class="mark-text role-mark layer_2_marks" role="graphics-object" aria-roledescription="text mark container"><text aria-label="x: 243; y: 0.22" role="graphics-symbol" aria-roledescription="text mark" text-anchor="middle" transform="translate(33.333333333333336,161)" font-family="sans-serif" font-size="18px" fill="red">Polls</text></g><g class="mark-text role-mark layer_3_marks" role="graphics-object" aria-roledescription="text mark container"><text aria-label="x: 243; y: 0.296961785776" role="graphics-symbol" aria-roledescription="text mark" text-anchor="middle" transform="translate(33.333333333333336,145.60764284470324)" font-family="sans-serif" font-size="18px" fill="green">Sentiments</text></g><g class="mark-group role-title"><g transform="translate(224,-28)"><path class="background" aria-hidden="true" d="M0,0h0v0h0Z" pointer-events="none"/><g><g class="mark-text role-title-text" role="graphics-symbol" aria-roledescription="title" aria-label="Title text 'Sentiment - FW'" pointer-events="none"><text text-anchor="middle" transform="translate(0,14)" font-family="Inter" font-size="18px" font-weight="400" fill="#445668" opacity="1">Sentiment - FW</text></g></g><path class="foreground" aria-hidden="true" d="" pointer-events="none" display="none"/></g></g></g><path class="foreground" aria-hidden="true" d="" display="none"/></g></g></g></svg>