<svg xmlns="http://www.w3.org/2000/svg" xmlns:xlink="http://www.w3.org/1999/xlink" version="1.1" class="marks" width="643" height="576" viewBox="0 0 643 576"><rect width="643" height="576" fill="#fff"/><g fill="none" stroke-miterlimit="10" transform="translate(65,33)"><g class="mark-group role-frame root" role="graphics-object" aria-roledescription="group mark container"><g transform="translate(0,0)"><path class="background" aria-hidden="true" d="M0.5,0.5h500v500h-500Z" stroke="#ddd"/><g><g class="mark-group role-axis" aria-hidden="true"><g transform="translate(0.5,500.5)"><path class="background" aria-hidden="true" d="M0,0h0v0h0Z" pointer-events="none"/><g><g class="mark-rule role-axis-grid" pointer-events="none"><line transform="translate(0,-500)" x2="0" y2="500" stroke="#ddd" stroke-width="1" opacity="1"/><line transform="translate(40,-500)" x2="0" y2="500" stroke="#ddd" stroke-width="1" opacity="1"/><line transform="translate(80,-500)" x2="0" y2="500" stroke="#ddd" stroke-width="1" opacity="1"/><line transform="translate(120,-500)" x2="0" y2="500" stroke="#ddd" stroke-width="1" opacity="1"/><line transform="translate(160,-500)" x2="0" y2="500" stroke="#ddd" stroke-width="1" opacity="1"/><line transform="translate(200,-500)" x2="0" y2="500" stroke="#ddd" stroke-width="1" opacity="1"/><line transform="translate(240,-500)" x2="0" y2="500" stroke="#ddd" stroke-width="1" opacity="1"/><line transform="translate(280,-500)" x2="0" y2="500" stroke="#ddd" stroke-width="1" opacity="1"/><line transform="translate(320,-500)" x2="0" y2="500" stroke="#ddd" stroke-width="1" opacity="1"/><line transform="translate(360,-500)" x2="0" y2="500" stroke="#ddd" stroke-width="1" opacity="1"/><line transform="translate(400,-500)" x2="0" y2="500" stroke="#ddd" stroke-width="1" opacity="1"/><line transform="translate(440,-500)" x2="0" y2="500" stroke="#ddd" stroke-width="1" opacity="1"/><line transform="translate(480,-500)" x2="0" y2="500" stroke="#ddd" stroke-width="1" opacity="1"/></g></g><path class="foreground" aria-hidden="true" d="" pointer-events="none" display="none"/></g></g><g class="mark-group role-axis" aria-hidden="true"><g transform="translate(0.5,0.5)"><path class="background" aria-hidden="true" d="M0,0h0v0h0Z" pointer-events="none"/><g><g class="mark-rule role-axis-grid" pointer-events="none"><line transform="translate(0,500)" x2="500" y2="0" stroke="#e1e8f0" stroke-width="1" opacity="1"/><line transform="translate(0,475)" x2="500" y2="0" stroke="#e1e8f0" stroke-width="1" opacity="1"/><line transform="translate(0,450)" x2="500" y2="0" stroke="#e1e8f0" stroke-width="1" opacity="1"/><line transform="translate(0,425)" x2="500" y2="0" stroke="#e1e8f0" stroke-width="1" opacity="1"/><line transform="translate(0,400)" x2="500" y2="0" stroke="#e1e8f0" stroke-width="1" opacity="1"/><line transform="translate(0,375)" x2="500" y2="0" stroke="#e1e8f0" stroke-width="1" opacity="1"/><line transform="translate(0,350)" x2="500" y2="0" stroke="#e1e8f0" stroke-width="1" opacity="1"/><line transform="translate(0,325)" x2="500" y2="0" stroke="#e1e8f0" stroke-width="1" opacity="1"/><line transform="translate(0,300)" x2="500" y2="0" stroke="#e1e8f0" stroke-width="1" opacity="1"/><line transform="translate(0,275)" x2="500" y2="0" stroke="#e1e8f0" stroke-width="1" opacity="1"/><line transform="translate(0,250)" x2="500" y2="0" stroke="#e1e8f0" stroke-width="1" opacity="1"/><line transform="translate(0,225)" x2="500" y2="0" stroke="#e1e8f0" stroke-width="1" opacity="1"/><line transform="translate(0,200)" x2="500" y2="0" stroke="#e1e8f0" stroke-width="1" opacity="1"/><line transform="translate(0,175)" x2="500" y2="0" stroke="#e1e8f0" stroke-width="1" opacity="1"/><line transform="translate(0,150)" x2="500" y2="0" stroke="#e1e8f0" stroke-width="1" opacity="1"/><line transform="translate(0,125)" x2="500" y2="0" stroke="#e1e8f0" stroke-width="1" opacity="1"/><line transform="translate(0,100)" x2="500" y2="0" stroke="#e1e8f0" stroke-width="1" opacity="1"/><line transform="translate(0,75)" x2="500" y2="0" stroke="#e1e8f0" stroke-width="1" opacity="1"/><line transform="translate(0,50)" x2="500" y2="0" stroke="#e1e8f0" stroke-width="1" opacity="1"/><line transform="translate(0,25)" x2="500" y2="0" stroke="#e1e8f0" stroke-width="1" opacity="1"/><line transform="translate(0,0)" x2="500" y2="0" stroke="#e1e8f0" stroke-width="1" opacity="1"/></g></g><path class="foreground" aria-hidden="true" d="" pointer-events="none" display="none"/></g></g><g class="mark-group role-axis" role="graphics-symbol" aria-roledescription="axis" aria-label="X-axis titled 'Sentiment' for a linear scale with values from 0.00 to 0.25"><g transform="translate(0.5,500.5)"><path class="background" aria-hidden="true" d="M0,0h0v0h0Z" pointer-events="none"/><g><g class="mark-rule role-axis-tick" pointer-events="none"><line transform="translate(0,0)" x2="0" y2="5" stroke="#888" stroke-width="1" opacity="1"/><line transform="translate(40,0)" x2="0" y2="5" stroke="#888" stroke-width="1" opacity="1"/><line transform="translate(80,0)" x2="0" y2="5" stroke="#888" stroke-width="1" opacity="1"/><line transform="translate(120,0)" x2="0" y2="5" stroke="#888" stroke-width="1" opacity="1"/><line transform="translate(160,0)" x2="0" y2="5" stroke="#888" stroke-width="1" opacity="1"/><line transform="translate(200,0)" x2="0" y2="5" stroke="#888" stroke-width="1" opacity="1"/><line transform="translate(240,0)" x2="0" y2="5" stroke="#888" stroke-width="1" opacity="1"/><line transform="translate(280,0)" x2="0" y2="5" stroke="#888" stroke-width="1" opacity="1"/><line transform="translate(320,0)" x2="0" y2="5" stroke="#888" stroke-width="1" opacity="1"/><line transform="translate(360,0)" x2="0" y2="5" stroke="#888" stroke-width="1" opacity="1"/><line transform="translate(400,0)" x2="0" y2="5" stroke="#888" stroke-width="1" opacity="1"/><line transform="translate(440,0)" x2="0" y2="5" stroke="#888" stroke-width="1" opacity="1"/><line transform="translate(480,0)" x2="0" y2="5" stroke="#888" stroke-width="1" opacity="1"/></g><g class="mark-text role-axis-label" pointer-events="none"><text text-anchor="start" transform="translate(0,15)" font-family="sans-serif" font-size="10px" fill="#000" opacity="1">0.00</text><text text-anchor="middle" transform="translate(40,15)" font-family="sans-serif" font-size="10px" fill="#000" opacity="1">0.02</text><text text-anchor="middle" transform="translate(80,15)" font-family="sans-serif" font-size="10px" fill="#000" opacity="1">0.04</text><text text-anchor="middle" transform="translate(120,15)" font-family="sans-serif" font-size="10px" fill="#000" opacity="1">0.06</text><text text-anchor="middle" transform="translate(160,15)" font-family="sans-serif" font-size="10px" fill="#000" opacity="1">0.08</text><text text-anchor="middle" transform="translate(200,15)" font-family="sans-serif" font-size="10px" fill="#000" opacity="1">0.10</text><text text-anchor="middle" transform="translate(240,15)" font-family="sans-serif" font-size="10px" fill="#000" opacity="1">0.12</text><text text-anchor="middle" transform="translate(280,15)" font-family="sans-serif" font-size="10px" fill="#000" opacity="1">0.14</text><text text-anchor="middle" transform="translate(320,15)" font-family="sans-serif" font-size="10px" fill="#000" opacity="1">0.16</text><text text-anchor="middle" transform="translate(360,15)" font-family="sans-serif" font-size="10px" fill="#000" opacity="1">0.18</text><text text-anchor="middle" transform="translate(400,15)" font-family="sans-serif" font-size="10px" fill="#000" opacity="1">0.20</text><text text-anchor="middle" transform="translate(440,15)" font-family="sans-serif" font-size="10px" fill="#000" opacity="1">0.22</text><text text-anchor="middle" transform="translate(480,15)" font-family="sans-serif" font-size="10px" fill="#000" opacity="1">0.24</text></g><g class="mark-rule role-axis-domain" pointer-events="none"><line transform="translate(0,0)" x2="500" y2="0" stroke="#e1e8f0" stroke-width="1" opacity="1"/></g><g class="mark-text role-axis-title" pointer-events="none"><text text-anchor="middle" transform="translate(250,36)" font-family="sans-serif" font-size="11px" font-weight="400" fill="#1c2a3a" opacity="1">Sentiment</text></g></g><path class="foreground" aria-hidden="true" d="" pointer-events="none" display="none"/></g></g><g class="mark-group role-axis" role="graphics-symbol" aria-roledescription="axis" aria-label="Y-axis titled 'Poll' for a linear scale with values from 0.0 to 0.4"><g transform="translate(0.5,0.5)"><path class="background" aria-hidden="true" d="M0,0h0v0h0Z" pointer-events="none"/><g><g class="mark-rule role-axis-tick" pointer-events="none"><line transform="translate(0,500)" x2="-5" y2="0" stroke="#888" stroke-width="1" opacity="1"/><line transform="translate(0,475)" x2="-5" y2="0" stroke="#888" stroke-width="1" opacity="1"/><line transform="translate(0,450)" x2="-5" y2="0" stroke="#888" stroke-width="1" opacity="1"/><line transform="translate(0,425)" x2="-5" y2="0" stroke="#888" stroke-width="1" opacity="1"/><line transform="translate(0,400)" x2="-5" y2="0" stroke="#888" stroke-width="1" opacity="1"/><line transform="translate(0,375)" x2="-5" y2="0" stroke="#888" stroke-width="1" opacity="1"/><line transform="translate(0,350)" x2="-5" y2="0" stroke="#888" stroke-width="1" opacity="1"/><line transform="translate(0,325)" x2="-5" y2="0" stroke="#888" stroke-width="1" opacity="1"/><line transform="translate(0,300)" x2="-5" y2="0" stroke="#888" stroke-width="1" opacity="1"/><line transform="translate(0,275)" x2="-5" y2="0" stroke="#888" stroke-width="1" opacity="1"/><line transform="translate(0,250)" x2="-5" y2="0" stroke="#888" stroke-width="1" opacity="1"/><line transform="translate(0,225)" x2="-5" y2="0" stroke="#888" stroke-width="1" opacity="1"/><line transform="translate(0,200)" x2="-5" y2="0" stroke="#888" stroke-width="1" opacity="1"/><line transform="translate(0,175)" x2="-5" y2="0" stroke="#888" stroke-width="1" opacity="1"/><line transform="translate(0,150)" x2="-5" y2="0" stroke="#888" stroke-width="1" opacity="1"/><line transform="translate(0,125)" x2="-5" y2="0" stroke="#888" stroke-width="1" opacity="1"/><line transform="translate(0,100)" x2="-5" y2="0" stroke="#888" stroke-width="1" opacity="1"/><line transform="translate(0,75)" x2="-5" y2="0" stroke="#888" stroke-width="1" opacity="1"/><line transform="translate(0,50)" x2="-5" y2="0" stroke="#888" stroke-width="1" opacity="1"/><line transform="translate(0,25)" x2="-5" y2="0" stroke="#888" stroke-width="1" opacity="1"/><line transform="translate(0,0)" x2="-5" y2="0" stroke="#888" stroke-width="1" opacity="1"/></g><g class="mark-text role-axis-label" pointer-events="none"><text text-anchor="end" transform="translate(-13,504)" font-family="sans-serif" font-size="12px" fill="#000" opacity="1">0.00</text><text text-anchor="end" transform="translate(-13,479)" font-family="sans-serif" font-size="12px" fill="#000" opacity="1">0.02</text><text text-anchor="end" transform="translate(-13,454)" font-family="sans-serif" font-size="12px" fill="#000" opacity="1">0.04</text><text text-anchor="end" transform="translate(-13,429)" font-family="sans-serif" font-size="12px" fill="#000" opacity="1">0.06</text><text text-anchor="end" transform="translate(-13,404)" font-family="sans-serif" font-size="12px" fill="#000" opacity="1">0.08</text><text text-anchor="end" transform="translate(-13,379)" font-family="sans-serif" font-size="12px" fill="#000" opacity="1">0.10</text><text text-anchor="end" transform="translate(-13,354)" font-family="sans-serif" font-size="12px" fill="#000" opacity="1">0.12</text><text text-anchor="end" transform="translate(-13,328.99999999999994)" font-family="sans-serif" font-size="12px" fill="#000" opacity="1">0.14</text><text text-anchor="end" transform="translate(-13,304.00000000000006)" font-family="sans-serif" font-size="12px" fill="#000" opacity="1">0.16</text><text text-anchor="end" transform="translate(-13,279)" font-family="sans-serif" font-size="12px" fill="#000" opacity="1">0.18</text><text text-anchor="end" transform="translate(-13,254)" font-family="sans-serif" font-size="12px" fill="#000" opacity="1">0.20</text><text text-anchor="end" transform="translate(-13,229.00000000000003)" font-family="sans-serif" font-size="12px" fill="#000" opacity="1">0.22</text><text text-anchor="end" transform="translate(-13,204)" font-family="sans-serif" font-size="12px" fill="#000" opacity="1">0.24</text><text text-anchor="end" transform="translate(-13,179)" font-family="sans-serif" font-size="12px" fill="#000" opacity="1">0.26</text><text text-anchor="end" transform="translate(-13,153.99999999999997)" font-family="sans-serif" font-size="12px" fill="#000" opacity="1">0.28</text><text text-anchor="end" transform="translate(-13,129.00000000000006)" font-family="sans-serif" font-size="12px" fill="#000" opacity="1">0.30</text><text text-anchor="end" transform="translate(-13,104.00000000000003)" font-family="sans-serif" font-size="12px" fill="#000" opacity="1">0.32</text><text text-anchor="end" transform="translate(-13,79.00000000000001)" font-family="sans-serif" font-size="12px" fill="#000" opacity="1">0.34</text><text text-anchor="end" transform="translate(-13,54.00000000000004)" font-family="sans-serif" font-size="12px" fill="#000" opacity="1">0.36</text><text text-anchor="end" transform="translate(-13,29.00000000000002)" font-family="sans-serif" font-size="12px" fill="#000" opacity="1">0.38</text><text text-anchor="end" transform="translate(-13,4)" font-family="sans-serif" font-size="12px" fill="#000" opacity="1">0.40</text></g><g class="mark-rule role-axis-domain" pointer-events="none"><line transform="translate(0,500)" x2="0" y2="-500" stroke="#888" stroke-width="1" opacity="1"/></g><g class="mark-text role-axis-title" pointer-events="none"><text text-anchor="middle" transform="translate(-47,250) rotate(-90) translate(0,-3)" font-family="sans-serif" font-size="12px" font-weight="400" fill="#1c2a3a" opacity="1">Poll</text></g></g><path class="foreground" aria-hidden="true" d="" pointer-events="none" display="none"/></g></g><g class="mark-symbol role-mark marks" role="graphics-object" aria-roledescription="symbol mark container"><path aria-label="sentiment: 0.183522958656; poll: 0.14; party: afd" role="graphics-symbol" aria-roledescription="point" transform="translate(367.0459173123458,324.99999999999994)" d="M2.739,0A2.739,2.739,0,1,1,-2.739,0A2.739,2.739,0,1,1,2.739,0" fill-opacity="1" stroke="#6583ff" stroke-width="2" opacity="0.7"/><path aria-label="sentiment: 0.15422314791; poll: 0.13; party: afd" role="graphics-symbol" aria-roledescription="point" transform="translate(308.44629582018365,337.5)" d="M2.739,0A2.739,2.739,0,1,1,-2.739,0A2.739,2.739,0,1,1,2.739,0" fill-opacity="1" stroke="#6583ff" stroke-width="2" opacity="0.7"/><path aria-label="sentiment: 0.16805944211; poll: 0.14; party: afd" role="graphics-symbol" aria-roledescription="point" transform="translate(336.1188842206529,324.99999999999994)" d="M2.739,0A2.739,2.739,0,1,1,-2.739,0A2.739,2.739,0,1,1,2.739,0" fill-opacity="1" stroke="#6583ff" stroke-width="2" opacity="0.7"/><path aria-label="sentiment: 0.130530995844; poll: 0.14; party: afd" role="graphics-symbol" aria-roledescription="point" transform="translate(261.0619916878272,324.99999999999994)" d="M2.739,0A2.739,2.739,0,1,1,-2.739,0A2.739,2.739,0,1,1,2.739,0" fill-opacity="1" stroke="#6583ff" stroke-width="2" opacity="0.7"/><path aria-label="sentiment: 0.127757999243; poll: 0.14; party: afd" role="graphics-symbol" aria-roledescription="point" transform="translate(255.51599848663227,324.99999999999994)" d="M2.739,0A2.739,2.739,0,1,1,-2.739,0A2.739,2.739,0,1,1,2.739,0" fill-opacity="1" stroke="#6583ff" stroke-width="2" opacity="0.7"/><path aria-label="sentiment: 0.157692090677; poll: 0.143; party: afd" role="graphics-symbol" aria-roledescription="point" transform="translate(315.38418135416674,321.25)" d="M2.739,0A2.739,2.739,0,1,1,-2.739,0A2.739,2.739,0,1,1,2.739,0" fill-opacity="1" stroke="#6583ff" stroke-width="2" opacity="0.7"/><path aria-label="sentiment: 0.195856999547; poll: 0.37; party: csu" role="graphics-symbol" aria-roledescription="point" transform="translate(391.7139990942224,37.500000000000036)" d="M-2.739,-2.739h5.477v5.477h-5.477Z" fill-opacity="1" stroke="#ffa83f" stroke-width="2" opacity="0.7"/><path aria-label="sentiment: 0.125410216744; poll: 0.366666666667; party: csu" role="graphics-symbol" aria-roledescription="point" transform="translate(250.8204334871491,41.66666666666674)" d="M-2.739,-2.739h5.477v5.477h-5.477Z" fill-opacity="1" stroke="#ffa83f" stroke-width="2" opacity="0.7"/><path aria-label="sentiment: 0.179326385103; poll: 0.36; party: csu" role="graphics-symbol" aria-roledescription="point" transform="translate(358.6527702067337,50.00000000000004)" d="M-2.739,-2.739h5.477v5.477h-5.477Z" fill-opacity="1" stroke="#ffa83f" stroke-width="2" opacity="0.7"/><path aria-label="sentiment: 0.124258039373; poll: 0.36; party: csu" role="graphics-symbol" aria-roledescription="point" transform="translate(248.51607874646416,50.00000000000004)" d="M-2.739,-2.739h5.477v5.477h-5.477Z" fill-opacity="1" stroke="#ffa83f" stroke-width="2" opacity="0.7"/><path aria-label="sentiment: 0.125368821446; poll: 0.36; party: csu" role="graphics-symbol" aria-roledescription="point" transform="translate(250.73764289294837,50.00000000000004)" d="M-2.739,-2.739h5.477v5.477h-5.477Z" fill-opacity="1" stroke="#ffa83f" stroke-width="2" opacity="0.7"/><path aria-label="sentiment: 0.154141941352; poll: 0.37; party: csu" role="graphics-symbol" aria-roledescription="point" transform="translate(308.2838827046094,37.500000000000036)" d="M-2.739,-2.739h5.477v5.477h-5.477Z" fill-opacity="1" stroke="#ffa83f" stroke-width="2" opacity="0.7"/><path aria-label="sentiment: 0.188414879632; poll: 0.04; party: fdp" role="graphics-symbol" aria-roledescription="point" transform="translate(376.829759264799,450)" d="M0,-2.372L-2.739,2.372L2.739,2.372Z" fill-opacity="1" stroke="#e2474d" stroke-width="2" opacity="0.7"/><path aria-label="sentiment: 0.164625801392; poll: 0.0366666666667; party: fdp" role="graphics-symbol" aria-roledescription="point" transform="translate(329.2516027839455,454.1666666666667)" d="M0,-2.372L-2.739,2.372L2.739,2.372Z" fill-opacity="1" stroke="#e2474d" stroke-width="2" opacity="0.7"/><path aria-label="sentiment: 0.118764280899; poll: 0.03; party: fdp" role="graphics-symbol" aria-roledescription="point" transform="translate(237.52856179792346,462.5)" d="M0,-2.372L-2.739,2.372L2.739,2.372Z" fill-opacity="1" stroke="#e2474d" stroke-width="2" opacity="0.7"/><path aria-label="sentiment: 0.15109636354; poll: 0.03; party: fdp" role="graphics-symbol" aria-roledescription="point" transform="translate(302.1927270803568,462.5)" d="M0,-2.372L-2.739,2.372L2.739,2.372Z" fill-opacity="1" stroke="#e2474d" stroke-width="2" opacity="0.7"/><path aria-label="sentiment: 0.116418071337; poll: 0.04; party: fdp" role="graphics-symbol" aria-roledescription="point" transform="translate(232.83614267445475,450)" d="M0,-2.372L-2.739,2.372L2.739,2.372Z" fill-opacity="1" stroke="#e2474d" stroke-width="2" opacity="0.7"/><path aria-label="sentiment: 0.127363390846; poll: 0.03; party: fdp" role="graphics-symbol" aria-roledescription="point" transform="translate(254.7267816926675,462.5)" d="M0,-2.372L-2.739,2.372L2.739,2.372Z" fill-opacity="1" stroke="#e2474d" stroke-width="2" opacity="0.7"/><path aria-label="sentiment: 0.183693773246; poll: 0.15; party: fw" role="graphics-symbol" aria-roledescription="point" transform="translate(367.38754649255566,312.5)" d="M-2.739,-1.095L-2.739,1.095L-1.095,1.095L-1.095,2.739L1.095,2.739L1.095,1.095L2.739,1.095L2.739,-1.095L1.095,-1.095L1.095,-2.739L-1.095,-2.739L-1.095,-1.095Z" fill-opacity="1" stroke="#4aa148" stroke-width="2" opacity="0.7"/><path aria-label="sentiment: 0.13801839251; poll: 0.163333333333; party: fw" role="graphics-symbol" aria-roledescription="point" transform="translate(276.0367850191321,295.8333333333333)" d="M-2.739,-1.095L-2.739,1.095L-1.095,1.095L-1.095,2.739L1.095,2.739L1.095,1.095L2.739,1.095L2.739,-1.095L1.095,-1.095L1.095,-2.739L-1.095,-2.739L-1.095,-1.095Z" fill-opacity="1" stroke="#4aa148" stroke-width="2" opacity="0.7"/><path aria-label="sentiment: 0.147865435953; poll: 0.17; party: fw" role="graphics-symbol" aria-roledescription="point" transform="translate(295.7308719056388,287.5)" d="M-2.739,-1.095L-2.739,1.095L-1.095,1.095L-1.095,2.739L1.095,2.739L1.095,1.095L2.739,1.095L2.739,-1.095L1.095,-1.095L1.095,-2.739L-1.095,-2.739L-1.095,-1.095Z" fill-opacity="1" stroke="#4aa148" stroke-width="2" opacity="0.7"/><path aria-label="sentiment: 0.125452212501; poll: 0.17; party: fw" role="graphics-symbol" aria-roledescription="point" transform="translate(250.90442500154475,287.5)" d="M-2.739,-1.095L-2.739,1.095L-1.095,1.095L-1.095,2.739L1.095,2.739L1.095,1.095L2.739,1.095L2.739,-1.095L1.095,-1.095L1.095,-2.739L-1.095,-2.739L-1.095,-1.095Z" fill-opacity="1" stroke="#4aa148" stroke-width="2" opacity="0.7"/><path aria-label="sentiment: 0.129410817479; poll: 0.153333333333; party: fw" role="graphics-symbol" aria-roledescription="point" transform="translate(258.8216349576098,308.33333333333337)" d="M-2.739,-1.095L-2.739,1.095L-1.095,1.095L-1.095,2.739L1.095,2.739L1.095,1.095L2.739,1.095L2.739,-1.095L1.095,-1.095L1.095,-2.739L-1.095,-2.739L-1.095,-1.095Z" fill-opacity="1" stroke="#4aa148" stroke-width="2" opacity="0.7"/><path aria-label="sentiment: 0.136801951577; poll: 0.154; party: fw" role="graphics-symbol" aria-roledescription="point" transform="translate(273.6039031541136,307.5)" d="M-2.739,-1.095L-2.739,1.095L-1.095,1.095L-1.095,2.739L1.095,2.739L1.095,1.095L2.739,1.095L2.739,-1.095L1.095,-1.095L1.095,-2.739L-1.095,-2.739L-1.095,-1.095Z" fill-opacity="1" stroke="#4aa148" stroke-width="2" opacity="0.7"/><path aria-label="sentiment: 0.0654410005356; poll: 0.14; party: gruene" role="graphics-symbol" aria-roledescription="point" transform="translate(130.88200107113147,324.99999999999994)" d="M-2.739,0L0,-2.739L2.739,0L0,2.739Z" fill-opacity="1" stroke="#2d4cdb" stroke-width="2" opacity="0.7"/><path aria-label="sentiment: 0.17822194651; poll: 0.15; party: gruene" role="graphics-symbol" aria-roledescription="point" transform="translate(356.44389302005834,312.5)" d="M-2.739,0L0,-2.739L2.739,0L0,2.739Z" fill-opacity="1" stroke="#2d4cdb" stroke-width="2" opacity="0.7"/><path aria-label="sentiment: 0.23125900978; poll: 0.14; party: gruene" role="graphics-symbol" aria-roledescription="point" transform="translate(462.5180195608148,324.99999999999994)" d="M-2.739,0L0,-2.739L2.739,0L0,2.739Z" fill-opacity="1" stroke="#2d4cdb" stroke-width="2" opacity="0.7"/><path aria-label="sentiment: 0.181477473924; poll: 0.14; party: gruene" role="graphics-symbol" aria-roledescription="point" transform="translate(362.9549478487624,324.99999999999994)" d="M-2.739,0L0,-2.739L2.739,0L0,2.739Z" fill-opacity="1" stroke="#2d4cdb" stroke-width="2" opacity="0.7"/><path aria-label="sentiment: 0.165017093138; poll: 0.153333333333; party: gruene" role="graphics-symbol" aria-roledescription="point" transform="translate(330.0341862759954,308.33333333333337)" d="M-2.739,0L0,-2.739L2.739,0L0,2.739Z" fill-opacity="1" stroke="#2d4cdb" stroke-width="2" opacity="0.7"/><path aria-label="sentiment: 0.19242765123; poll: 0.152; party: gruene" role="graphics-symbol" aria-roledescription="point" transform="translate(384.85530245920853,310.00000000000006)" d="M-2.739,0L0,-2.739L2.739,0L0,2.739Z" fill-opacity="1" stroke="#2d4cdb" stroke-width="2" opacity="0.7"/><path aria-label="sentiment: 0.0254850294118; poll: 0.02; party: linke" role="graphics-symbol" aria-roledescription="point" transform="translate(50.97005882354765,475)" d="M2.372,0L-2.372,-2.739L-2.372,2.739Z" fill-opacity="1" stroke="#b7641f" stroke-width="2" opacity="0.7"/><path aria-label="sentiment: 0.0933565944379; poll: 0.01; party: linke" role="graphics-symbol" aria-roledescription="point" transform="translate(186.71318887573756,487.5)" d="M2.372,0L-2.372,-2.739L-2.372,2.739Z" fill-opacity="1" stroke="#b7641f" stroke-width="2" opacity="0.7"/><path aria-label="sentiment: 0.00843002670068; poll: 0.01; party: linke" role="graphics-symbol" aria-roledescription="point" transform="translate(16.86005340136599,487.5)" d="M2.372,0L-2.372,-2.739L-2.372,2.739Z" fill-opacity="1" stroke="#b7641f" stroke-width="2" opacity="0.7"/><path aria-label="sentiment: 0.19930897601; poll: 0.01; party: linke" role="graphics-symbol" aria-roledescription="point" transform="translate(398.6179520193227,487.5)" d="M2.372,0L-2.372,-2.739L-2.372,2.739Z" fill-opacity="1" stroke="#b7641f" stroke-width="2" opacity="0.7"/><path aria-label="sentiment: 0.197994684233; poll: 0.02; party: linke" role="graphics-symbol" aria-roledescription="point" transform="translate(395.98936846599463,475)" d="M2.372,0L-2.372,-2.739L-2.372,2.739Z" fill-opacity="1" stroke="#b7641f" stroke-width="2" opacity="0.7"/><path aria-label="sentiment: 0.0840879222061; poll: 0.015; party: linke" role="graphics-symbol" aria-roledescription="point" transform="translate(168.17584441212745,481.25)" d="M2.372,0L-2.372,-2.739L-2.372,2.739Z" fill-opacity="1" stroke="#b7641f" stroke-width="2" opacity="0.7"/><path aria-label="sentiment: 0.157585358971; poll: 0.09; party: spd" role="graphics-symbol" aria-roledescription="point" transform="translate(315.1707179413978,387.5)" d="M0,2.372L-2.739,-2.372L2.739,-2.372Z" fill-opacity="1" stroke="#bc1227" stroke-width="2" opacity="0.7"/><path aria-label="sentiment: 0.146143900497; poll: 0.09; party: spd" role="graphics-symbol" aria-roledescription="point" transform="translate(292.2878009937939,387.5)" d="M0,2.372L-2.739,-2.372L2.739,-2.372Z" fill-opacity="1" stroke="#bc1227" stroke-width="2" opacity="0.7"/><path aria-label="sentiment: 0.146295419453; poll: 0.09; party: spd" role="graphics-symbol" aria-roledescription="point" transform="translate(292.5908389068702,387.5)" d="M0,2.372L-2.739,-2.372L2.739,-2.372Z" fill-opacity="1" stroke="#bc1227" stroke-width="2" opacity="0.7"/><path aria-label="sentiment: 0.0878759388079; poll: 0.09; party: spd" role="graphics-symbol" aria-roledescription="point" transform="translate(175.75187761572224,387.5)" d="M0,2.372L-2.739,-2.372L2.739,-2.372Z" fill-opacity="1" stroke="#bc1227" stroke-width="2" opacity="0.7"/><path aria-label="sentiment: 0.138032513123; poll: 0.09; party: spd" role="graphics-symbol" aria-roledescription="point" transform="translate(276.06502624636454,387.5)" d="M0,2.372L-2.739,-2.372L2.739,-2.372Z" fill-opacity="1" stroke="#bc1227" stroke-width="2" opacity="0.7"/><path aria-label="sentiment: 0.147485052112; poll: 0.087; party: spd" role="graphics-symbol" aria-roledescription="point" transform="translate(294.9701042231067,391.25)" d="M0,2.372L-2.739,-2.372L2.739,-2.372Z" fill-opacity="1" stroke="#bc1227" stroke-width="2" opacity="0.7"/></g><g class="mark-group role-legend" role="graphics-symbol" aria-roledescription="legend" aria-label="Symbol legend titled 'party' for shape and stroke color with 7 values: afd, csu, fdp, fw, gruene, linke, spd"><g transform="translate(518,0)"><path class="background" aria-hidden="true" d="M0,0h55v128h-55Z" pointer-events="none"/><g><g class="mark-group role-legend-entry"><g transform="translate(0,23)"><path class="background" aria-hidden="true" d="M0,0h0v0h0Z" pointer-events="none"/><g><g class="mark-group role-scope" role="graphics-object" aria-roledescription="group mark container"><g transform="translate(0,0)"><path class="background" aria-hidden="true" d="M0,0h55v12.5h-55Z" pointer-events="none" opacity="1"/><g><g class="mark-symbol role-legend-symbol" pointer-events="none"><path transform="translate(6,6)" d="M5,0A5,5,0,1,1,-5,0A5,5,0,1,1,5,0" stroke="#6583ff" stroke-width="1.5" opacity="0.7"/></g><g class="mark-text role-legend-label" pointer-events="none"><text text-anchor="start" transform="translate(16,10)" font-family="sans-serif" font-size="12px" fill="#000" opacity="1">afd</text></g></g><path class="foreground" aria-hidden="true" d="" pointer-events="none" display="none"/></g><g transform="translate(0,16)"><path class="background" aria-hidden="true" d="M0,0h55v12.5h-55Z" pointer-events="none" opacity="1"/><g><g class="mark-symbol role-legend-symbol" pointer-events="none"><path transform="translate(6,6)" d="M-5,-5h10v10h-10Z" stroke="#ffa83f" stroke-width="1.5" opacity="0.7"/></g><g class="mark-text role-legend-label" pointer-events="none"><text text-anchor="start" transform="translate(16,10)" font-family="sans-serif" font-size="12px" fill="#000" opacity="1">csu</text></g></g><path class="foreground" aria-hidden="true" d="" pointer-events="none" display="none"/></g><g transform="translate(0,31)"><path class="background" aria-hidden="true" d="M0,0h55v12h-55Z" pointer-events="none" opacity="1"/><g><g class="mark-symbol role-legend-symbol" pointer-events="none"><path transform="translate(6,6)" d="M0,-4.33L-5,4.33L5,4.33Z" stroke="#e2474d" stroke-width="1.5" opacity="0.7"/></g><g class="mark-text role-legend-label" pointer-events="none"><text text-anchor="start" transform="translate(16,10)" font-family="sans-serif" font-size="12px" fill="#000" opacity="1">fdp</text></g></g><path class="foreground" aria-hidden="true" d="" pointer-events="none" display="none"/></g><g transform="translate(0,46)"><path class="background" aria-hidden="true" d="M0,0h55v12.5h-55Z" pointer-events="none" opacity="1"/><g><g class="mark-symbol role-legend-symbol" pointer-events="none"><path transform="translate(6,6)" d="M-5,-2L-5,2L-2,2L-2,5L2,5L2,2L5,2L5,-2L2,-2L2,-5L-2,-5L-2,-2Z" stroke="#4aa148" stroke-width="1.5" opacity="0.7"/></g><g class="mark-text role-legend-label" pointer-events="none"><text text-anchor="start" transform="translate(16,10)" font-family="sans-serif" font-size="12px" fill="#000" opacity="1">fw</text></g></g><path class="foreground" aria-hidden="true" d="" pointer-events="none" display="none"/></g><g transform="translate(0,62)"><path class="background" aria-hidden="true" d="M0,0h55v12.5h-55Z" pointer-events="none" opacity="1"/><g><g class="mark-symbol role-legend-symbol" pointer-events="none"><path transform="translate(6,6)" d="M-5,0L0,-5L5,0L0,5Z" stroke="#2d4cdb" stroke-width="1.5" opacity="0.7"/></g><g class="mark-text role-legend-label" pointer-events="none"><text text-anchor="start" transform="translate(16,10)" font-family="sans-serif" font-size="12px" fill="#000" opacity="1">gruene</text></g></g><path class="foreground" aria-hidden="true" d="" pointer-events="none" display="none"/></g><g transform="translate(0,78)"><path class="background" aria-hidden="true" d="M0,0h55v12.5h-55Z" pointer-events="none" opacity="1"/><g><g class="mark-symbol role-legend-symbol" pointer-events="none"><path transform="translate(6,6)" d="M4.33,0L-4.33,-5L-4.33,5Z" stroke="#b7641f" stroke-width="1.5" opacity="0.7"/></g><g class="mark-text role-legend-label" pointer-events="none"><text text-anchor="start" transform="translate(16,10)" font-family="sans-serif" font-size="12px" fill="#000" opacity="1">linke</text></g></g><path class="foreground" aria-hidden="true" d="" pointer-events="none" display="none"/></g><g transform="translate(0,93)"><path class="background" aria-hidden="true" d="M0,0h55v12h-55Z" pointer-events="none" opacity="1"/><g><g class="mark-symbol role-legend-symbol" pointer-events="none"><path transform="translate(6,6)" d="M0,4.33L-5,-4.33L5,-4.33Z" stroke="#bc1227" stroke-width="1.5" opacity="0.7"/></g><g class="mark-text role-legend-label" pointer-events="none"><text text-anchor="start" transform="translate(16,10)" font-family="sans-serif" font-size="12px" fill="#000" opacity="1">spd</text></g></g><path class="foreground" aria-hidden="true" d="" pointer-events="none" display="none"/></g></g></g><path class="foreground" aria-hidden="true" d="" pointer-events="none" display="none"/></g></g><g class="mark-text role-legend-title" pointer-events="none"><text text-anchor="start" transform="translate(0,10)" font-family="sans-serif" font-size="13px" font-weight="400" fill="#000" opacity="1">party</text></g></g><path class="foreground" aria-hidden="true" d="" pointer-events="none" display="none"/></g></g><g class="mark-group role-title"><g transform="translate(256.5,-28)"><path class="background" aria-hidden="true" d="M0,0h0v0h0Z" pointer-events="none"/><g><g class="mark-text role-title-text" role="graphics-symbol" aria-roledescription="title" aria-label="Title text 'Dependency of Polling Results From Sentiment.'" pointer-events="none"><text text-anchor="middle" transform="translate(0,14)" font-family="Inter" font-size="18px" font-weight="400" fill="#445668" opacity="1">Dependency of Polling Results From Sentiment.</text></g></g><path class="foreground" aria-hidden="true" d="" pointer-events="none" display="none"/></g></g></g><path class="foreground" aria-hidden="true" d="" display="none"/></g></g></g></svg>