<svg xmlns="http://www.w3.org/2000/svg" xmlns:xlink="http://www.w3.org/1999/xlink" version="1.1" class="marks" width="744" height="370" viewBox="0 0 744 370"><rect width="744" height="370" fill="#fff"/><g fill="none" stroke-miterlimit="10" transform="translate(55,27)"><g class="mark-group role-frame root" role="graphics-object" aria-roledescription="group mark container"><g transform="translate(0,0)"><path class="background" aria-hidden="true" d="M0.5,0.5h500v300h-500Z" stroke="#ddd"/><g><g class="mark-group role-axis" aria-hidden="true"><g transform="translate(0.5,300.5)"><path class="background" aria-hidden="true" d="M0,0h0v0h0Z" pointer-events="none"/><g><g class="mark-rule role-axis-grid" pointer-events="none"><line transform="translate(54,-300)" x2="0" y2="300" stroke="#ddd" stroke-width="1" opacity="1"/><line transform="translate(104,-300)" x2="0" y2="300" stroke="#ddd" stroke-width="1" opacity="1"/><line transform="translate(159,-300)" x2="0" y2="300" stroke="#ddd" stroke-width="1" opacity="1"/><line transform="translate(213,-300)" x2="0" y2="300" stroke="#ddd" stroke-width="1" opacity="1"/><line transform="translate(269,-300)" x2="0" y2="300" stroke="#ddd" stroke-width="1" opacity="1"/><line transform="translate(323,-300)" x2="0" y2="300" stroke="#ddd" stroke-width="1" opacity="1"/><line transform="translate(378,-300)" x2="0" y2="300" stroke="#ddd" stroke-width="1" opacity="1"/><line transform="translate(434,-300)" x2="0" y2="300" stroke="#ddd" stroke-width="1" opacity="1"/><line transform="translate(487,-300)" x2="0" y2="300" stroke="#ddd" stroke-width="1" opacity="1"/></g></g><path class="foreground" aria-hidden="true" d="" pointer-events="none" display="none"/></g></g><g class="mark-group role-axis" aria-hidden="true"><g transform="translate(0.5,0.5)"><path class="background" aria-hidden="true" d="M0,0h0v0h0Z" pointer-events="none"/><g><g class="mark-rule role-axis-grid" pointer-events="none"><line transform="translate(0,279)" x2="500" y2="0" stroke="#e1e8f0" stroke-width="1" opacity="1"/><line transform="translate(0,236)" x2="500" y2="0" stroke="#e1e8f0" stroke-width="1" opacity="1"/><line transform="translate(0,193)" x2="500" y2="0" stroke="#e1e8f0" stroke-width="1" opacity="1"/><line transform="translate(0,150)" x2="500" y2="0" stroke="#e1e8f0" stroke-width="1" opacity="1"/><line transform="translate(0,107)" x2="500" y2="0" stroke="#e1e8f0" stroke-width="1" opacity="1"/><line transform="translate(0,64)" x2="500" y2="0" stroke="#e1e8f0" stroke-width="1" opacity="1"/><line transform="translate(0,21)" x2="500" y2="0" stroke="#e1e8f0" stroke-width="1" opacity="1"/></g></g><path class="foreground" aria-hidden="true" d="" pointer-events="none" display="none"/></g></g><g class="mark-group role-axis" role="graphics-symbol" aria-roledescription="axis" aria-label="X-axis titled 'poll dates' for a time scale with values from Monday, 02 January 2023, 12:00:00 AM to Sunday, 08 October 2023, 12:00:00 AM"><g transform="translate(0.5,300.5)"><path class="background" aria-hidden="true" d="M0,0h0v0h0Z" pointer-events="none"/><g><g class="mark-rule role-axis-tick" pointer-events="none"><line transform="translate(54,0)" x2="0" y2="5" stroke="#888" stroke-width="1" opacity="1"/><line transform="translate(104,0)" x2="0" y2="5" stroke="#888" stroke-width="1" opacity="1"/><line transform="translate(159,0)" x2="0" y2="5" stroke="#888" stroke-width="1" opacity="1"/><line transform="translate(213,0)" x2="0" y2="5" stroke="#888" stroke-width="1" opacity="1"/><line transform="translate(269,0)" x2="0" y2="5" stroke="#888" stroke-width="1" opacity="1"/><line transform="translate(323,0)" x2="0" y2="5" stroke="#888" stroke-width="1" opacity="1"/><line transform="translate(378,0)" x2="0" y2="5" stroke="#888" stroke-width="1" opacity="1"/><line transform="translate(434,0)" x2="0" y2="5" stroke="#888" stroke-width="1" opacity="1"/><line transform="translate(487,0)" x2="0" y2="5" stroke="#888" stroke-width="1" opacity="1"/></g><g class="mark-text role-axis-label" pointer-events="none"><text text-anchor="middle" transform="translate(53.7714712471994,15)" font-family="sans-serif" font-size="10px" fill="#000" opacity="1">February</text><text text-anchor="middle" transform="translate(103.95817774458551,15)" font-family="sans-serif" font-size="10px" fill="#000" opacity="1">March</text><text text-anchor="middle" transform="translate(159.4473487677371,15)" font-family="sans-serif" font-size="10px" fill="#000" opacity="1">April</text><text text-anchor="middle" transform="translate(213.21882001493654,15)" font-family="sans-serif" font-size="10px" fill="#000" opacity="1">May</text><text text-anchor="middle" transform="translate(268.78267363704254,15)" font-family="sans-serif" font-size="10px" fill="#000" opacity="1">June</text><text text-anchor="middle" transform="translate(322.55414488424196,15)" font-family="sans-serif" font-size="10px" fill="#000" opacity="1">July</text><text text-anchor="middle" transform="translate(378.11799850634804,15)" font-family="sans-serif" font-size="10px" fill="#000" opacity="1">August</text><text text-anchor="middle" transform="translate(433.68185212845407,15)" font-family="sans-serif" font-size="10px" fill="#000" opacity="1">September</text><text text-anchor="middle" transform="translate(487.45332337565344,15)" font-family="sans-serif" font-size="10px" fill="#000" opacity="1">October</text></g><g class="mark-rule role-axis-domain" pointer-events="none"><line transform="translate(0,0)" x2="500" y2="0" stroke="#e1e8f0" stroke-width="1" opacity="1"/></g><g class="mark-text role-axis-title" pointer-events="none"><text text-anchor="middle" transform="translate(250,36)" font-family="sans-serif" font-size="11px" font-weight="400" fill="#1c2a3a" opacity="1">poll dates</text></g></g><path class="foreground" aria-hidden="true" d="" pointer-events="none" display="none"/></g></g><g class="mark-group role-axis" role="graphics-symbol" aria-roledescription="axis" aria-label="Y-axis titled 'percentage' for a linear scale with values from 36 to 43"><g transform="translate(0.5,0.5)"><path class="background" aria-hidden="true" d="M0,0h0v0h0Z" pointer-events="none"/><g><g class="mark-rule role-axis-tick" pointer-events="none"><line transform="translate(0,279)" x2="-5" y2="0" stroke="#888" stroke-width="1" opacity="1"/><line transform="translate(0,236)" x2="-5" y2="0" stroke="#888" stroke-width="1" opacity="1"/><line transform="translate(0,193)" x2="-5" y2="0" stroke="#888" stroke-width="1" opacity="1"/><line transform="translate(0,150)" x2="-5" y2="0" stroke="#888" stroke-width="1" opacity="1"/><line transform="translate(0,107)" x2="-5" y2="0" stroke="#888" stroke-width="1" opacity="1"/><line transform="translate(0,64)" x2="-5" y2="0" stroke="#888" stroke-width="1" opacity="1"/><line transform="translate(0,21)" x2="-5" y2="0" stroke="#888" stroke-width="1" opacity="1"/></g><g class="mark-text role-axis-label" pointer-events="none"><text text-anchor="end" transform="translate(-13,282.57142857142856)" font-family="sans-serif" font-size="12px" fill="#000" opacity="1">36</text><text text-anchor="end" transform="translate(-13,239.71428571428572)" font-family="sans-serif" font-size="12px" fill="#000" opacity="1">37</text><text text-anchor="end" transform="translate(-13,196.85714285714283)" font-family="sans-serif" font-size="12px" fill="#000" opacity="1">38</text><text text-anchor="end" transform="translate(-13,154)" font-family="sans-serif" font-size="12px" fill="#000" opacity="1">39</text><text text-anchor="end" transform="translate(-13,111.14285714285712)" font-family="sans-serif" font-size="12px" fill="#000" opacity="1">40</text><text text-anchor="end" transform="translate(-13,68.28571428571429)" font-family="sans-serif" font-size="12px" fill="#000" opacity="1">41</text><text text-anchor="end" transform="translate(-13,25.42857142857142)" font-family="sans-serif" font-size="12px" fill="#000" opacity="1">42</text></g><g class="mark-rule role-axis-domain" pointer-events="none"><line transform="translate(0,300)" x2="0" y2="-300" stroke="#888" stroke-width="1" opacity="1"/></g><g class="mark-text role-axis-title" pointer-events="none"><text text-anchor="middle" transform="translate(-37,150) rotate(-90) translate(0,-3)" font-family="sans-serif" font-size="12px" font-weight="400" fill="#1c2a3a" opacity="1">percentage</text></g></g><path class="foreground" aria-hidden="true" d="" pointer-events="none" display="none"/></g></g><g class="mark-rect role-mark layer_0_marks" role="graphics-object" aria-roledescription="rect mark container"><path aria-label="poll dates: Jan 02, 2023; percentage: 40; end_date: Jan 09, 2023; institute: INSA" role="graphics-symbol" aria-roledescription="bar" d="M0,104.64285714285712h12.546676624346528v5h-12.546676624346528Z" fill="#4aa148" opacity="0.5"/><path aria-label="poll dates: Jan 04, 2023; percentage: 38; end_date: Jan 09, 2023; institute: Infratest dimap" role="graphics-symbol" aria-roledescription="bar" d="M3.5847647498132935,190.35714285714283h8.961911874533234v5h-8.961911874533234Z" fill="#2d4cdb" opacity="0.5"/><path aria-label="poll dates: Feb 08, 2023; percentage: 42; end_date: Feb 16, 2023; institute: Forsa" role="graphics-symbol" aria-roledescription="bar" d="M66.31814787154593,18.92857142857142h14.339058999253183v5h-14.339058999253183Z" fill="#6583ff" opacity="0.5"/><path aria-label="poll dates: Mar 27, 2023; percentage: 40; end_date: Apr 03, 2023; institute: INSA" role="graphics-symbol" aria-roledescription="bar" d="M150.48543689320388,104.64285714285712h12.546676624346503v5h-12.546676624346503Z" fill="#4aa148" opacity="0.5"/><path aria-label="poll dates: Apr 20, 2023; percentage: 41; end_date: Apr 28, 2023; institute: Forsa" role="graphics-symbol" aria-roledescription="bar" d="M193.5026138909634,61.78571428571429h14.339058999253183v5h-14.339058999253183Z" fill="#6583ff" opacity="0.5"/><path aria-label="poll dates: Apr 26, 2023; percentage: 41; end_date: May 02, 2023; institute: GMS" role="graphics-symbol" aria-roledescription="bar" d="M204.25690814040328,61.78571428571429h10.75429424943988v5h-10.75429424943988Z" fill="#e2474d" opacity="0.5"/><path aria-label="poll dates: May 09, 2023; percentage: 39; end_date: May 13, 2023; institute: Infratest dimap" role="graphics-symbol" aria-roledescription="bar" d="M227.5578790141897,147.5h7.169529499626606v5h-7.169529499626606Z" fill="#2d4cdb" opacity="0.5"/><path aria-label="poll dates: May 16, 2023; percentage: 40; end_date: May 22, 2023; institute: INSA" role="graphics-symbol" aria-roledescription="bar" d="M240.10455563853623,104.64285714285712h10.754294249439852v5h-10.754294249439852Z" fill="#4aa148" opacity="0.5"/><path aria-label="poll dates: May 31, 2023; percentage: 41; end_date: Jun 05, 2023; institute: GMS" role="graphics-symbol" aria-roledescription="bar" d="M266.99029126213594,61.78571428571429h8.961911874533257v5h-8.961911874533257Z" fill="#e2474d" opacity="0.5"/><path aria-label="poll dates: Jun 28, 2023; percentage: 40; end_date: Jul 03, 2023; institute: GMS" role="graphics-symbol" aria-roledescription="bar" d="M317.176997759522,104.64285714285712h8.961911874533257v5h-8.961911874533257Z" fill="#e2474d" opacity="0.5"/><path aria-label="poll dates: Jul 17, 2023; percentage: 38; end_date: Jul 24, 2023; institute: INSA" role="graphics-symbol" aria-roledescription="bar" d="M351.23226288274833,190.35714285714283h12.546676624346503v5h-12.546676624346503Z" fill="#4aa148" opacity="0.5"/><path aria-label="poll dates: Jul 24, 2023; percentage: 39; end_date: Jul 28, 2023; institute: Forsa" role="graphics-symbol" aria-roledescription="bar" d="M363.77893950709483,147.5h7.169529499626606v5h-7.169529499626606Z" fill="#6583ff" opacity="0.5"/><path aria-label="poll dates: Aug 02, 2023; percentage: 39; end_date: Aug 08, 2023; institute: GMS" role="graphics-symbol" aria-roledescription="bar" d="M379.9103808812547,147.5h10.754294249439852v5h-10.754294249439852Z" fill="#e2474d" opacity="0.5"/><path aria-label="poll dates: Sep 01, 2023; percentage: 37; end_date: Sep 05, 2023; institute: INSA" role="graphics-symbol" aria-roledescription="bar" d="M433.68185212845407,233.21428571428572h7.169529499626549v5h-7.169529499626549Z" fill="#4aa148" opacity="0.5"/><path aria-label="poll dates: Sep 04, 2023; percentage: 38; end_date: Sep 06, 2023; institute: GMS" role="graphics-symbol" aria-roledescription="bar" d="M439.05899925317397,190.35714285714283h3.5847647498133597v5h-3.5847647498133597Z" fill="#e2474d" opacity="0.5"/><path aria-label="poll dates: Sep 04, 2023; percentage: 36; end_date: Sep 07, 2023; institute: Forschungsgruppe Wahlen" role="graphics-symbol" aria-roledescription="bar" d="M439.05899925317397,276.07142857142856h5.377147124720011v5h-5.377147124720011Z" fill="#ffa83f" opacity="0.5"/><path aria-label="poll dates: Sep 05, 2023; percentage: 36; end_date: Sep 09, 2023; institute: Infratest dimap" role="graphics-symbol" aria-roledescription="bar" d="M440.8513816280806,276.07142857142856h7.1695294996266625v5h-7.1695294996266625Z" fill="#2d4cdb" opacity="0.5"/><path aria-label="poll dates: Sep 13, 2023; percentage: 36; end_date: Sep 18, 2023; institute: GMS" role="graphics-symbol" aria-roledescription="bar" d="M455.1904406273338,276.07142857142856h8.9619118745332v5h-8.9619118745332Z" fill="#e2474d" opacity="0.5"/><path aria-label="poll dates: Sep 25, 2023; percentage: 36; end_date: Sep 27, 2023; institute: Infratest dimap" role="graphics-symbol" aria-roledescription="bar" d="M476.6990291262136,276.07142857142856h3.584764749813303v5h-3.584764749813303Z" fill="#2d4cdb" opacity="0.5"/><path aria-label="poll dates: Sep 25, 2023; percentage: 36; end_date: Sep 28, 2023; institute: Forschungsgruppe Wahlen" role="graphics-symbol" aria-roledescription="bar" d="M476.6990291262136,276.07142857142856h5.377147124719954v5h-5.377147124719954Z" fill="#ffa83f" opacity="0.5"/><path aria-label="poll dates: Sep 25, 2023; percentage: 36; end_date: Oct 02, 2023; institute: INSA" role="graphics-symbol" aria-roledescription="bar" d="M476.6990291262136,276.07142857142856h12.54667662434656v5h-12.54667662434656Z" fill="#4aa148" opacity="0.5"/><path aria-label="poll dates: Oct 04, 2023; percentage: 37; end_date: Oct 05, 2023; institute: Forschungsgruppe Wahlen" role="graphics-symbol" aria-roledescription="bar" d="M492.83047050037345,233.21428571428572h1.7923823749065946v5h-1.7923823749065946Z" fill="#ffa83f" opacity="0.5"/><path aria-label="poll dates: Oct 08, 2023; percentage: 37; end_date: Oct 08, 2023; institute: Landtagswahl" role="graphics-symbol" aria-roledescription="bar" d="M500,233.21428571428572h0v5h0Z" fill="#b7641f" opacity="0.5"/></g><g class="mark-rect role-mark layer_1_marks" role="graphics-object" aria-roledescription="rect mark container"><path aria-label="poll dates: Jan 05, 2023; percentage: 40; end_date: Jan 09, 2023; institute: INSA" role="graphics-symbol" aria-roledescription="bar" d="M6.273338312173264,104.64285714285712h6.273338312173264v5h-6.273338312173264Z" fill="#4aa148" opacity="0"/><path aria-label="poll dates: Jan 06, 2023; percentage: 38; end_date: Jan 09, 2023; institute: Infratest dimap" role="graphics-symbol" aria-roledescription="bar" d="M8.06572068707991,190.35714285714283h4.480955937266618v5h-4.480955937266618Z" fill="#2d4cdb" opacity="0"/><path aria-label="poll dates: Feb 12, 2023; percentage: 42; end_date: Feb 16, 2023; institute: Forsa" role="graphics-symbol" aria-roledescription="bar" d="M73.48767737117251,18.92857142857142h7.169529499626606v5h-7.169529499626606Z" fill="#6583ff" opacity="0"/><path aria-label="poll dates: Mar 30, 2023; percentage: 40; end_date: Apr 03, 2023; institute: INSA" role="graphics-symbol" aria-roledescription="bar" d="M156.75877520537716,104.64285714285712h6.273338312173223v5h-6.273338312173223Z" fill="#4aa148" opacity="0"/><path aria-label="poll dates: Apr 24, 2023; percentage: 41; end_date: Apr 28, 2023; institute: Forsa" role="graphics-symbol" aria-roledescription="bar" d="M200.67214339059,61.78571428571429h7.169529499626577v5h-7.169529499626577Z" fill="#6583ff" opacity="0"/><path aria-label="poll dates: Apr 29, 2023; percentage: 41; end_date: May 02, 2023; institute: GMS" role="graphics-symbol" aria-roledescription="bar" d="M209.6340552651232,61.78571428571429h5.377147124719954v5h-5.377147124719954Z" fill="#e2474d" opacity="0"/><path aria-label="poll dates: May 11, 2023; percentage: 39; end_date: May 13, 2023; institute: Infratest dimap" role="graphics-symbol" aria-roledescription="bar" d="M231.14264376400297,147.5h3.5847647498133313v5h-3.5847647498133313Z" fill="#2d4cdb" opacity="0"/><path aria-label="poll dates: May 19, 2023; percentage: 40; end_date: May 22, 2023; institute: INSA" role="graphics-symbol" aria-roledescription="bar" d="M245.48170276325615,104.64285714285712h5.377147124719926v5h-5.377147124719926Z" fill="#4aa148" opacity="0"/><path aria-label="poll dates: Jun 02, 2023; percentage: 41; end_date: Jun 05, 2023; institute: GMS" role="graphics-symbol" aria-roledescription="bar" d="M271.4712471994025,61.78571428571429h4.480955937266685v5h-4.480955937266685Z" fill="#e2474d" opacity="0"/><path aria-label="poll dates: Jun 30, 2023; percentage: 40; end_date: Jul 03, 2023; institute: GMS" role="graphics-symbol" aria-roledescription="bar" d="M321.65795369678864,104.64285714285712h4.4809559372666286v5h-4.4809559372666286Z" fill="#e2474d" opacity="0"/><path aria-label="poll dates: Jul 20, 2023; percentage: 38; end_date: Jul 24, 2023; institute: INSA" role="graphics-symbol" aria-roledescription="bar" d="M357.5056011949216,190.35714285714283h6.273338312173223v5h-6.273338312173223Z" fill="#4aa148" opacity="0"/><path aria-label="poll dates: Jul 26, 2023; percentage: 39; end_date: Jul 28, 2023; institute: Forsa" role="graphics-symbol" aria-roledescription="bar" d="M367.36370425690814,147.5h3.584764749813303v5h-3.584764749813303Z" fill="#6583ff" opacity="0"/><path aria-label="poll dates: Aug 05, 2023; percentage: 39; end_date: Aug 08, 2023; institute: GMS" role="graphics-symbol" aria-roledescription="bar" d="M385.2875280059746,147.5h5.377147124719954v5h-5.377147124719954Z" fill="#e2474d" opacity="0"/><path aria-label="poll dates: Sep 03, 2023; percentage: 37; end_date: Sep 05, 2023; institute: INSA" role="graphics-symbol" aria-roledescription="bar" d="M437.26661687826737,233.21428571428572h3.584764749813246v5h-3.584764749813246Z" fill="#4aa148" opacity="0"/><path aria-label="poll dates: Sep 05, 2023; percentage: 38; end_date: Sep 06, 2023; institute: GMS" role="graphics-symbol" aria-roledescription="bar" d="M440.8513816280806,190.35714285714283h1.7923823749067083v5h-1.7923823749067083Z" fill="#e2474d" opacity="0"/><path aria-label="poll dates: Sep 05, 2023; percentage: 36; end_date: Sep 07, 2023; institute: Forschungsgruppe Wahlen" role="graphics-symbol" aria-roledescription="bar" d="M441.747572815534,276.07142857142856h2.688573562359977v5h-2.688573562359977Z" fill="#ffa83f" opacity="0"/><path aria-label="poll dates: Sep 07, 2023; percentage: 36; end_date: Sep 09, 2023; institute: Infratest dimap" role="graphics-symbol" aria-roledescription="bar" d="M444.436146377894,276.07142857142856h3.584764749813303v5h-3.584764749813303Z" fill="#2d4cdb" opacity="0"/><path aria-label="poll dates: Sep 15, 2023; percentage: 36; end_date: Sep 18, 2023; institute: GMS" role="graphics-symbol" aria-roledescription="bar" d="M459.67139656460046,276.07142857142856h4.480955937266572v5h-4.480955937266572Z" fill="#e2474d" opacity="0"/><path aria-label="poll dates: Sep 26, 2023; percentage: 36; end_date: Sep 27, 2023; institute: Infratest dimap" role="graphics-symbol" aria-roledescription="bar" d="M478.49141150112024,276.07142857142856h1.7923823749066514v5h-1.7923823749066514Z" fill="#2d4cdb" opacity="0"/><path aria-label="poll dates: Sep 26, 2023; percentage: 36; end_date: Sep 28, 2023; institute: Forschungsgruppe Wahlen" role="graphics-symbol" aria-roledescription="bar" d="M479.38760268857357,276.07142857142856h2.688573562359977v5h-2.688573562359977Z" fill="#ffa83f" opacity="0"/><path aria-label="poll dates: Sep 28, 2023; percentage: 36; end_date: Oct 02, 2023; institute: INSA" role="graphics-symbol" aria-roledescription="bar" d="M482.97236743838687,276.07142857142856h6.27333831217328v5h-6.27333831217328Z" fill="#4aa148" opacity="0"/><path aria-label="poll dates: Oct 04, 2023; percentage: 37; end_date: Oct 05, 2023; institute: Forschungsgruppe Wahlen" role="graphics-symbol" aria-roledescription="bar" d="M493.7266616878268,233.21428571428572h0.8961911874532689v5h-0.8961911874532689Z" fill="#ffa83f" opacity="0"/><path aria-label="poll dates: Oct 08, 2023; percentage: 37; end_date: Oct 08, 2023; institute: Landtagswahl" role="graphics-symbol" aria-roledescription="bar" d="M500,233.21428571428572h0v5h0Z" fill="#b7641f" opacity="0"/></g><g class="mark-rule role-mark layer_2_marks" role="graphics-symbol" aria-roledescription="rule mark container"><line transform="translate(500,235.71428571428572)" x2="-500" y2="0" stroke="blue" stroke-width="2"/><line transform="translate(500,235.71428571428572)" x2="-500" y2="0" stroke="blue" stroke-width="2"/><line transform="translate(500,235.71428571428572)" x2="-500" y2="0" stroke="blue" stroke-width="2"/><line transform="translate(500,235.71428571428572)" x2="-500" y2="0" stroke="blue" stroke-width="2"/><line transform="translate(500,235.71428571428572)" x2="-500" y2="0" stroke="blue" stroke-width="2"/><line transform="translate(500,235.71428571428572)" x2="-500" y2="0" stroke="blue" stroke-width="2"/><line transform="translate(500,235.71428571428572)" x2="-500" y2="0" stroke="blue" stroke-width="2"/><line transform="translate(500,235.71428571428572)" x2="-500" y2="0" stroke="blue" stroke-width="2"/><line transform="translate(500,235.71428571428572)" x2="-500" y2="0" stroke="blue" stroke-width="2"/><line transform="translate(500,235.71428571428572)" x2="-500" y2="0" stroke="blue" stroke-width="2"/><line transform="translate(500,235.71428571428572)" x2="-500" y2="0" stroke="blue" stroke-width="2"/><line transform="translate(500,235.71428571428572)" x2="-500" y2="0" stroke="blue" stroke-width="2"/><line transform="translate(500,235.71428571428572)" x2="-500" y2="0" stroke="blue" stroke-width="2"/><line transform="translate(500,235.71428571428572)" x2="-500" y2="0" stroke="blue" stroke-width="2"/><line transform="translate(500,235.71428571428572)" x2="-500" y2="0" stroke="blue" stroke-width="2"/><line transform="translate(500,235.71428571428572)" x2="-500" y2="0" stroke="blue" stroke-width="2"/><line transform="translate(500,235.71428571428572)" x2="-500" y2="0" stroke="blue" stroke-width="2"/><line transform="translate(500,235.71428571428572)" x2="-500" y2="0" stroke="blue" stroke-width="2"/><line transform="translate(500,235.71428571428572)" x2="-500" y2="0" stroke="blue" stroke-width="2"/><line transform="translate(500,235.71428571428572)" x2="-500" y2="0" stroke="blue" stroke-width="2"/><line transform="translate(500,235.71428571428572)" x2="-500" y2="0" stroke="blue" stroke-width="2"/><line transform="translate(500,235.71428571428572)" x2="-500" y2="0" stroke="blue" stroke-width="2"/><line transform="translate(500,235.71428571428572)" x2="-500" y2="0" stroke="blue" stroke-width="2"/></g><g class="mark-line role-mark layer_3_marks" role="graphics-object" aria-roledescription="line mark container"><path aria-label="poll dates: Jan 05, 2023; percentage: 39.6489396002" role="graphics-symbol" aria-roledescription="line mark" d="M6.273,122.188L8.066,121.851L73.488,110.309L156.759,90.922L200.672,88.944L209.634,91.107L231.143,94.37L245.482,100.253L271.471,109.573L321.658,127.861L357.506,150.973L367.364,161.839L385.288,181.799L437.267,243.871L440.851,249.67L441.748,250.645L444.436,253.271L459.671,259.5L478.491,260.085L479.388,260.083L482.972,260.059L493.727,259.725L500,259.242" stroke="firebrick" stroke-width="2"/></g><g class="mark-group role-legend" role="graphics-symbol" aria-roledescription="legend" aria-label="Symbol legend titled 'institute' for fill color with 6 values: Forsa, Forschungsgruppe Wahlen, GMS, INSA, Infratest dimap, Landtagswahl"><g transform="translate(518,0)"><path class="background" aria-hidden="true" d="M0,0h166v105h-166Z" pointer-events="none"/><g><g class="mark-group role-legend-entry"><g transform="translate(0,23)"><path class="background" aria-hidden="true" d="M0,0h0v0h0Z" pointer-events="none"/><g><g class="mark-group role-scope" role="graphics-object" aria-roledescription="group mark container"><g transform="translate(0,0)"><path class="background" aria-hidden="true" d="M0,0h166v12h-166Z" pointer-events="none" opacity="1"/><g><g class="mark-symbol role-legend-symbol" pointer-events="none"><path transform="translate(6,6)" d="M5,0A5,5,0,1,1,-5,0A5,5,0,1,1,5,0" fill="#6583ff" stroke-width="1.5" opacity="0.5"/></g><g class="mark-text role-legend-label" pointer-events="none"><text text-anchor="start" transform="translate(16,10)" font-family="sans-serif" font-size="12px" fill="#000" opacity="1">Forsa</text></g></g><path class="foreground" aria-hidden="true" d="" pointer-events="none" display="none"/></g><g transform="translate(0,14)"><path class="background" aria-hidden="true" d="M0,0h166v12h-166Z" pointer-events="none" opacity="1"/><g><g class="mark-symbol role-legend-symbol" pointer-events="none"><path transform="translate(6,6)" d="M5,0A5,5,0,1,1,-5,0A5,5,0,1,1,5,0" fill="#ffa83f" stroke-width="1.5" opacity="0.5"/></g><g class="mark-text role-legend-label" pointer-events="none"><text text-anchor="start" transform="translate(16,10)" font-family="sans-serif" font-size="12px" fill="#000" opacity="1">Forschungsgruppe Wahlen</text></g></g><path class="foreground" aria-hidden="true" d="" pointer-events="none" display="none"/></g><g transform="translate(0,28)"><path class="background" aria-hidden="true" d="M0,0h166v12h-166Z" pointer-events="none" opacity="1"/><g><g class="mark-symbol role-legend-symbol" pointer-events="none"><path transform="translate(6,6)" d="M5,0A5,5,0,1,1,-5,0A5,5,0,1,1,5,0" fill="#e2474d" stroke-width="1.5" opacity="0.5"/></g><g class="mark-text role-legend-label" pointer-events="none"><text text-anchor="start" transform="translate(16,10)" font-family="sans-serif" font-size="12px" fill="#000" opacity="1">GMS</text></g></g><path class="foreground" aria-hidden="true" d="" pointer-events="none" display="none"/></g><g transform="translate(0,42)"><path class="background" aria-hidden="true" d="M0,0h166v12h-166Z" pointer-events="none" opacity="1"/><g><g class="mark-symbol role-legend-symbol" pointer-events="none"><path transform="translate(6,6)" d="M5,0A5,5,0,1,1,-5,0A5,5,0,1,1,5,0" fill="#4aa148" stroke-width="1.5" opacity="0.5"/></g><g class="mark-text role-legend-label" pointer-events="none"><text text-anchor="start" transform="translate(16,10)" font-family="sans-serif" font-size="12px" fill="#000" opacity="1">INSA</text></g></g><path class="foreground" aria-hidden="true" d="" pointer-events="none" display="none"/></g><g transform="translate(0,56)"><path class="background" aria-hidden="true" d="M0,0h166v12h-166Z" pointer-events="none" opacity="1"/><g><g class="mark-symbol role-legend-symbol" pointer-events="none"><path transform="translate(6,6)" d="M5,0A5,5,0,1,1,-5,0A5,5,0,1,1,5,0" fill="#2d4cdb" stroke-width="1.5" opacity="0.5"/></g><g class="mark-text role-legend-label" pointer-events="none"><text text-anchor="start" transform="translate(16,10)" font-family="sans-serif" font-size="12px" fill="#000" opacity="1">Infratest dimap</text></g></g><path class="foreground" aria-hidden="true" d="" pointer-events="none" display="none"/></g><g transform="translate(0,70)"><path class="background" aria-hidden="true" d="M0,0h166v12h-166Z" pointer-events="none" opacity="1"/><g><g class="mark-symbol role-legend-symbol" pointer-events="none"><path transform="translate(6,6)" d="M5,0A5,5,0,1,1,-5,0A5,5,0,1,1,5,0" fill="#b7641f" stroke-width="1.5" opacity="0.5"/></g><g class="mark-text role-legend-label" pointer-events="none"><text text-anchor="start" transform="translate(16,10)" font-family="sans-serif" font-size="12px" fill="#000" opacity="1">Landtagswahl</text></g></g><path class="foreground" aria-hidden="true" d="" pointer-events="none" display="none"/></g></g></g><path class="foreground" aria-hidden="true" d="" pointer-events="none" display="none"/></g></g><g class="mark-text role-legend-title" pointer-events="none"><text text-anchor="start" transform="translate(0,10)" font-family="sans-serif" font-size="13px" font-weight="400" fill="#000" opacity="1">institute</text></g></g><path class="foreground" aria-hidden="true" d="" pointer-events="none" display="none"/></g></g><g class="mark-group role-title"><g transform="translate(317,-22)"><path class="background" aria-hidden="true" d="M0,0h0v0h0Z" pointer-events="none"/><g><g class="mark-text role-title-text" role="graphics-symbol" aria-roledescription="title" aria-label="Title text 'Polls - CSU'" pointer-events="none"><text text-anchor="middle" transform="translate(0,14)" font-family="Inter" font-size="18px" font-weight="400" fill="#445668" opacity="1">Polls - CSU</text></g></g><path class="foreground" aria-hidden="true" d="" pointer-events="none" display="none"/></g></g></g><path class="foreground" aria-hidden="true" d="" display="none"/></g></g></g></svg>